<?xml version="1.0"?>
<svg xmlns="http://www.w3.org/2000/svg" xmlns:xlink="http://www.w3.org/1999/xlink" version="1.1" id="Layer_1" x="0px" y="0px" viewBox="0 0 512.001 512.001" style="enable-background:new 0 0 512.001 512.001;" xml:space="preserve" width="512px" height="512px" class=""><g><g>
	<path style="fill:#B6B0AD" d="M291.951,490.892c0,5.405,4.397,9.802,9.802,9.802h20.354c5.405,0,9.801-4.397,9.801-9.802V161.852   c-10.388,0.815-24.367,2.242-39.957,4.71v324.329H291.951z" data-original="#754C24" class="" data-old_color="#B5AFAB"/>
	<path style="fill:#B6B0AD" d="M331.909,56.507c0-5.405-4.397-9.802-9.801-9.802h-20.354c-5.405,0-9.802,4.397-9.802,9.802v8.075   c15.592,2.468,29.568,3.893,39.957,4.71V56.507H331.909z" data-original="#754C24" class="" data-old_color="#B5AFAB"/>
</g><path style="fill:#E6E6E6;" d="M172.951,32.154c-7.411-6.129-13.505-12.776-18.268-19.93c-3.645,2.363-9.066,9.742-13.99,27.161  c-5.73,20.276-8.886,47.333-8.886,76.188s3.156,55.911,8.886,76.187c4.923,17.419,10.344,24.8,13.99,27.161  c4.763-7.154,10.857-13.801,18.268-19.93c-6.727-21.41-10.556-51.483-10.556-83.418C162.395,83.636,166.222,53.561,172.951,32.154z" data-original="#E6E6E6" class=""/><g>
	<path style="fill:#FC0404" d="M182.617,39.355c-5.692,20.03-8.915,47.228-8.915,76.219c0,28.99,3.225,56.183,8.917,76.215   c20.619-13.882,48.976-24.689,84.859-32.276c34.232-7.237,65.021-9.277,77.257-9.83V81.462   c-12.236-0.553-43.025-2.591-77.257-9.829C231.594,64.046,203.237,53.239,182.617,39.355z" data-original="#808080" class="active-path" data-old_color="#FB0404"/>
	<polygon style="fill:#FC0404" points="356.043,79.872 356.043,151.268 375.551,158.855 380.195,144.977 380.195,86.164    375.551,72.286  " data-original="#808080" class="active-path" data-old_color="#FB0404"/>
</g><path d="M384.391,63.073c-0.491-1.466-1.56-2.667-2.961-3.324c-1.401-0.656-3.01-0.711-4.449-0.15L349.407,70.32  c-1.184-0.038-3.289-0.119-6.193-0.276V56.507c0-11.639-9.469-21.108-21.107-21.108h-20.354c-11.639,0-21.108,9.469-21.108,21.108  v6.143c-44.767-8.228-98.165-25.153-118.548-59.858l-0.019,0.011C161.094,1.132,159.298,0,157.221,0  c-24.107,0-36.72,58.141-36.72,115.574c0,57.432,12.614,115.572,36.72,115.572c2.077,0,3.873-1.133,4.855-2.802l0.019,0.011  c20.385-34.708,73.783-51.631,118.548-59.859v322.397c0,11.639,9.469,21.108,21.108,21.108h20.354  c11.639,0,21.107-9.469,21.107-21.108V161.099c2.893-0.155,5.021-0.237,6.201-0.276l27.565,10.719  c0.659,0.257,1.355,0.384,2.049,0.384c0.822,0,1.642-0.179,2.4-0.535c1.4-0.657,2.47-1.858,2.961-3.324l6.819-20.376  c0.193-0.579,0.292-1.185,0.292-1.794V85.244c0-0.609-0.098-1.215-0.292-1.794L384.391,63.073z M291.951,56.507  c0-5.405,4.397-9.802,9.802-9.802h20.354c5.405,0,9.801,4.397,9.801,9.802v12.785c-10.39-0.817-24.365-2.242-39.957-4.71v-8.075  H291.951z M154.683,218.921c-3.645-2.362-9.067-9.742-13.99-27.161c-5.73-20.276-8.886-47.332-8.886-76.187  s3.156-55.912,8.886-76.188c4.923-17.419,10.344-24.799,13.99-27.161c4.763,7.154,10.857,13.801,18.268,19.93  c-6.727,21.408-10.555,51.481-10.555,83.419c0,31.934,3.828,62.007,10.556,83.418C165.539,205.12,159.446,211.768,154.683,218.921z   M331.909,490.892c0,5.405-4.397,9.802-9.801,9.802h-20.354c-5.405,0-9.802-4.397-9.802-9.802V166.563  c15.591-2.468,29.569-3.895,39.957-4.71v329.039H331.909z M344.736,149.683c-12.236,0.553-43.025,2.593-77.257,9.83  c-35.884,7.587-64.241,18.394-84.859,32.276c-5.693-20.032-8.917-47.226-8.917-76.215c0-28.992,3.224-56.189,8.915-76.219  c20.62,13.884,48.977,24.691,84.863,32.278c34.232,7.237,65.021,9.276,77.257,9.829v68.222H344.736z M380.195,144.977l-4.644,13.878  l-19.508-7.587V79.872l19.508-7.586l4.644,13.878V144.977z" data-original="#000000" class="" style="fill:#000000"/></g> </svg>
