<?xml version="1.0"?>
<svg xmlns="http://www.w3.org/2000/svg" height="512px" viewBox="0 0 512 512" width="512px" class="">
  <g transform="matrix(-1 1.22465e-16 -1.22465e-16 -1 512 512)">
    <path d="m90.585938 58.457031-55.371094 32.855469-20.835938-34.535156c-2.972656-4.917969-4.378906-10.289063-4.378906-15.589844 0-10.789062 5.847656-21.28125 16.304688-27.050781 15.550781-8.59375 35.4375-3.492188 44.425781 11.410156zm0 0" fill="#757679" data-original="#757679" class=""/>
    <path d="m140.953125 141.925781-55.382813 32.832031-45.058593-74.675781-5.296875-8.769531 55.371094-32.855469zm0 0" fill="#ffea77" data-original="#FFEA77" class="active-path" style="fill:#FF4700" data-old_color="#FFEA77"/>
    <path d="m264.515625 471.335938c11.457031 18.980468 32.585937 30.664062 55.464844 30.664062h121.5625c33.386719 0 60.457031-25.941406 60.457031-57.945312 0-5.660157-2.386719-10.769532-6.253906-14.480469-3.867188-3.699219-9.203125-5.992188-15.105469-5.992188h-145.097656c-15.25 0-29.34375-7.789062-36.972657-20.4375l-4.785156-7.933593zm0 0" fill="#595959" data-original="#595959" class=""/>
    <path d="m236.570312 425.023438 27.945313 46.3125 29.269531-76.125-22.523437-37.332032-6.121094-10.132812zm0 0" fill="#ffea77" data-original="#FFEA77" class="active-path" style="fill:#FF4700" data-old_color="#FFEA77"/>
    <path d="m85.570312 174.757812 150.792969 249.917969.207031.347657 28.570313-77.277344-124.1875-205.820313zm0 0" fill="#757679" data-original="#757679" class=""/>
    <path d="m0 41.1875c0 7.28125 2.011719 14.460938 5.820312 20.761719l20.828126 34.53125 50.363281 83.445312 150.96875 250.21875c.007812.019531.019531.03125.03125.050781l27.949219 46.3125c13.210937 21.890626 37.738281 35.492188 64.019531 35.492188h121.558593c38.851563 0 70.460938-30.480469 70.460938-67.945312 0-8.222657-3.308594-15.921876-9.328125-21.703126-5.921875-5.660156-13.742187-8.769531-22.03125-8.769531h-145.101563c-11.710937 0-22.597656-5.980469-28.410156-15.601562l-4.777344-7.941407-28.652343-47.460937-124.1875-205.824219-50.363281-83.457031v-.007813c-.027344-.042968-.046876-.089843-.089844-.132812l-19.769532-32.769531c-11.710937-19.421875-37.648437-26.152344-57.820312-15.003907-13.238281 7.300782-21.46875 21.023438-21.46875 35.804688zm275.710938 428.910156 20.558593-53.484375c9.890625 10.652344 24.179688 16.96875 39.269531 16.96875h145.101563c3.121094 0 6.03125 1.140625 8.1875 3.222657 2.042969 1.949218 3.171875 4.527343 3.171875 7.25 0 2.628906-.21875 5.210937-.660156 7.730468h-82.910156c-5.519532 0-10 4.46875-10 10 0 5.519532 4.480468 10 10 10h74.25c-9.160157 12.222656-24.191407 20.210938-41.140626 20.210938h-121.558593c-17.671875.003906-34.21875-8.289063-44.269531-21.898438zm-28.089844-46.125 19.699218-53.273437 15.378907 25.484375v.007812l-20.179688 52.472656zm-148.28125-245.753906 38.179687-22.632812 116.570313 193.214843-19.691406 53.261719zm-50.359375-83.449219 38.167969-22.640625 40.03125 66.335938-38.167969 22.632812zm-28.980469-53.582031c0-7.492188 4.269531-14.5 11.128906-18.292969 10.890625-6.019531 24.8125-2.507812 31.042969 7.824219l14.648437 24.28125-38.171874 22.648438-15.707032-26.039063c-1.921875-3.183594-2.941406-6.78125-2.941406-10.421875zm0 0" data-original="#000000" class="" style="fill:#000000"/>
    <path d="m373.410156 471.785156c5.523438 0 10.003906-4.480468 10.003906-10.003906 0-5.519531-4.472656-10-9.992187-10h-.011719c-5.523437 0-10 4.480469-10 10 0 5.523438 4.476563 10.003906 10 10.003906zm0 0" data-original="#000000" class="" style="fill:#000000"/>
  </g>
</svg>
