<?xml version="1.0"?>
<svg xmlns="http://www.w3.org/2000/svg" height="512px" viewBox="-40 0 480 480" width="512px" class=""><g><path d="m120 8h-48v152c0 22.089844-17.910156 40-40 40h-24v248c0 13.253906 10.746094 24 24 24h144c13.253906 0 24-10.746094 24-24v-264zm0 0" fill="#fdbd40" data-original="#FDBD40" class="active-path" style="fill:#E97424" data-old_color="#FDBD40"/><path d="m328 160v-152h-48l-80 176v264c0 13.253906 10.746094 24 24 24h144c13.253906 0 24-10.746094 24-24v-248h-24c-22.089844 0-40-17.910156-40-40zm0 0" fill="#e97424" data-original="#E97424" class="" style="fill:#E97424" data-old_color="#FFEF00"/><path d="m136 216h128v32h-128zm0 0" fill="#394d5c" data-original="#394D5C" class="" style="fill:#394D5C" data-old_color="#189064"/><path d="m264 392h128v32h-128zm0 0" fill="#fdbd40" data-original="#FDBD40" class="active-path" style="fill:#E97424" data-old_color="#FDBD40"/><path d="m200 376h64v64h-64zm0 0" fill="#394d5c" data-original="#394D5C" class="" style="fill:#394D5C" data-old_color="#189064"/><path d="m8 392h192v32h-192zm0 0" fill="#e97424" data-original="#E97424" class="" style="fill:#E97424" data-old_color="#FFEF00"/><path d="m264 296h128v32h-128zm0 0" fill="#fdbd40" data-original="#FDBD40" class="active-path" style="fill:#E97424" data-old_color="#FDBD40"/><path d="m200 280h64v64h-64zm0 0" fill="#394d5c" data-original="#394D5C" class="" style="fill:#394D5C" data-old_color="#189064"/><path d="m8 296h192v32h-192zm0 0" fill="#e97424" data-original="#E97424" class="" style="fill:#E97424" data-old_color="#FFEF00"/><path d="m224 304h16v16h-16zm0 0" fill="#fdbd40" data-original="#FDBD40" class="active-path" style="fill:#E97424" data-old_color="#FDBD40"/><path d="m224 400h16v16h-16zm0 0" fill="#fdbd40" data-original="#FDBD40" class="active-path" style="fill:#E97424" data-old_color="#FDBD40"/><path d="m120 8s24 16 80 16 80-16 80-16l-80 176zm0 0" fill="#5a6470" data-original="#5A6470" class="" style="fill:#5A6470"/><path d="m400 448v-248c0-4.417969-3.582031-8-8-8h-24c-17.671875 0-32-14.328125-32-32v-152c0-4.417969-3.582031-8-8-8h-48c-.699219.046875-1.390625.148438-2.070312.304688-.8125.207031-1.585938.542968-2.289063.992187-.265625.167969-23.328125 14.703125-75.640625 14.703125-52.144531 0-75.199219-14.449219-75.609375-14.6875-.683594-.441406-1.429687-.773438-2.214844-.984375-.714843-.160156-1.445312-.2695312-2.175781-.328125h-48c-4.417969 0-8 3.582031-8 8v152c0 17.671875-14.328125 32-32 32h-24c-4.417969 0-8 3.582031-8 8v248c0 17.671875 14.328125 32 32 32h144c9.226562-.03125 17.980469-4.0625 24-11.054688 6.019531 6.992188 14.773438 11.023438 24 11.054688h144c17.671875 0 32-14.328125 32-32zm-384-112h176v48h-176zm0-32h176v16h-176zm368 16h-112v-16h112zm-128 16h-48v-48h48zm-240 64h176v16h-176zm192-16h48v48h-48zm56-16h-56v-16h56c4.417969 0 8-3.582031 8-8v-8h112v48h-112v-8c0-4.417969-3.582031-8-8-8zm8 32h112v16h-112zm96-192h16v80h-112v-8c0-4.417969-3.582031-8-8-8h-56v-16h56c4.417969 0 8-3.582031 8-8v-32c0-4.417969-3.582031-8-8-8h-56v-22.265625l77.152344-169.734375h34.847656v144c.027344 26.5 21.5 47.972656 48 48zm-160 16h48v16h-48zm-16 16h-48v-16h48zm8-208c21.726562.394531 43.382812-2.519531 64.230469-8.640625l-64.230469 141.304687-64.230469-141.304687c20.847657 6.121094 42.503907 9.035156 64.230469 8.640625zm-168 176c26.5-.027344 47.972656-21.5 48-48v-144h34.847656l77.152344 169.734375v22.265625h-56c-4.417969 0-8 3.582031-8 8v32c0 4.417969 3.582031 8 8 8h56v32h-176v-80zm144 256h-144c-8.835938 0-16-7.164062-16-16v-16h176v16c0 8.835938-7.164062 16-16 16zm32-16h56c4.417969 0 8-3.582031 8-8v-8h112v16c0 8.835938-7.164062 16-16 16h-144c-8.835938 0-16-7.164062-16-16zm0 0" data-original="#000000" class="" style="fill:#000000"/><path d="m224 304h16v16h-16zm0 0" data-original="#000000" class="" style="fill:#000000"/><path d="m224 400h16v16h-16zm0 0" data-original="#000000" class="" style="fill:#000000"/></g> </svg>
