<?xml version="1.0"?>
<svg xmlns="http://www.w3.org/2000/svg" xmlns:xlink="http://www.w3.org/1999/xlink" version="1.1" id="Capa_1" x="0px" y="0px" viewBox="0 0 512 512" style="enable-background:new 0 0 512 512;" xml:space="preserve" width="512px" height="512px" class=""><g><rect x="7.5" y="94" style="fill:#898890;" width="497" height="392.4" data-original="#898890"/><rect x="255.88" y="94" style="fill:#898890" width="248.62" height="392.4" data-original="#57565C" class="" data-old_color="#57565C"/><path style="fill:#40A559;" d="M368.67,318.31v-38.12h-22.63c-2.38-11.27-6.82-21.78-12.9-31.12l16.01-16.02L322.2,206.1  l-16.02,16.01c-9.34-6.08-19.85-10.52-31.12-12.9v-22.63h-38.12v22.63c-11.27,2.38-21.78,6.82-31.12,12.9L189.8,206.1l-26.95,26.95  l16.01,16.02c-6.08,9.34-10.52,19.85-12.9,31.12h-22.63v38.12h22.63c2.38,11.27,6.82,21.78,12.9,31.12l-16.01,16.02l26.95,26.95  l16.02-16.01c9.34,6.08,19.85,10.52,31.12,12.9v22.63h38.12v-22.63c11.27-2.38,21.78-6.82,31.12-12.9l16.02,16.01l26.95-26.95  l-16.01-16.02c6.08-9.34,10.52-19.85,12.9-31.12H368.67z M256,340.45c-22.76,0-41.2-18.44-41.2-41.2s18.44-41.2,41.2-41.2  s41.2,18.44,41.2,41.2S278.76,340.45,256,340.45z" data-original="#40A559" class=""/><path style="fill:#40A559" d="M346.04,318.31c-2.38,11.27-6.82,21.78-12.9,31.12l16.01,16.02L322.2,392.4l-16.02-16.01  c-9.34,6.08-19.85,10.52-31.12,12.9v22.63H256v-71.47c22.76,0,41.2-18.44,41.2-41.2s-18.44-41.2-41.2-41.2v-71.47h19.06v22.63  c11.27,2.38,21.78,6.82,31.12,12.9l16.02-16.01l26.95,26.95l-16.01,16.02c6.08,9.34,10.52,19.85,12.9,31.12h22.63v38.12  L346.04,318.31L346.04,318.31z" data-original="#317E46" class="" data-old_color="#317E46"/><path style="fill:#898890" d="M353.36,89.22V94h-70.31c5.97,0,11.38-2.42,15.3-6.33c3.91-3.92,6.33-9.33,6.33-15.3  c0-4.62-1.45-8.9-3.92-12.41c-3.91-5.57-10.38-9.21-17.71-9.21h-54.1c-5.97,0-11.38,2.42-15.3,6.33c-3.91,3.92-6.33,9.32-6.33,15.29  C207.32,84.32,217,94,228.95,94h-70.31v-4.78c0-45.13,36.59-81.72,81.73-81.72h31.26c25.96,0,49.09,12.1,64.06,30.97  C346.75,52.41,353.36,70.05,353.36,89.22z" data-original="#57565C" class="" data-old_color="#57565C"/><path style="fill:#898890" d="M353.36,89.22V94h-70.31c5.97,0,11.38-2.42,15.3-6.33c3.91-3.92,6.33-9.33,6.33-15.3  c0-4.62-1.45-8.9-3.92-12.41c-3.91-5.57-10.38-9.21-17.71-9.21h-26.88V7.5h15.46c25.96,0,49.09,12.1,64.06,30.97  C346.75,52.41,353.36,70.05,353.36,89.22z" data-original="#3E3D43" class="" data-old_color="#3E3D43"/><g>
	<rect x="414.67" y="337.77" style="fill:#FE0B37;" width="52.73" height="109.35" data-original="#FE0B37" class=""/>
	<rect x="423.16" y="311.5" style="fill:#FE0B37;" width="36.58" height="26.27" data-original="#FE0B37" class=""/>
</g><polygon style="fill:#FE0B37" points="467.4,337.77 467.4,447.12 441.45,447.12 441.45,311.5 459.74,311.5 459.74,337.77 " data-original="#A50020" class="active-path" data-old_color="#A50020"/><rect x="428.56" y="151.38" style="fill:#898890" width="24.961" height="27.23" data-original="#57565C" class="" data-old_color="#57565C"/><path style="fill:#FED322" d="M118.82,189.32c0,16.31-9.5,30.41-23.26,37.07v200.94c0,4.69-1.58,9-4.21,12.39  c-1.75,2.26-3.97,4.1-6.5,5.39c-2.19,1.11-4.62,1.8-7.18,1.97c-0.4,0.03-0.81,0.04-1.22,0.04c-10.55,0-19.11-8.86-19.11-19.79  V225.09c-12.43-7.08-20.81-20.44-20.81-35.77c0-17.07,10.39-31.71,25.19-37.94v37.94l15.95,9.14l15.96-9.14v-37.94  C108.43,157.61,118.82,172.25,118.82,189.32z" data-original="#FED322" class=""/><path style="fill:#FED322" d="M118.82,189.32c0,16.31-9.5,30.41-23.26,37.07v200.94c0,4.69-1.58,9-4.21,12.39  c-1.75,2.26-3.97,4.1-6.5,5.39c-2.19,1.11-4.62,1.8-7.18,1.97V198.46l15.96-9.14v-37.94C108.43,157.61,118.82,172.25,118.82,189.32z  " data-original="#FF9911" class="" data-old_color="#FF9911"/><g>
	<rect x="45.08" y="69.59" style="fill:#898890" width="55.3" height="24.411" data-original="#57565C" class="" data-old_color="#57565C"/>
	<rect x="410.02" y="69.59" style="fill:#898890" width="55.3" height="24.411" data-original="#57565C" class="" data-old_color="#57565C"/>
	<rect x="52.652" y="486.4" style="fill:#898890" width="40.906" height="18.1" data-original="#57565C" class="" data-old_color="#57565C"/>
	<rect x="418.44" y="486.4" style="fill:#898890" width="40.906" height="18.1" data-original="#57565C" class="" data-old_color="#57565C"/>
</g><g>
	<path style="fill:#020202" d="M512,86.5h-39.178V62.088h-70.305V86.5h-41.714c-0.57-19.33-7.181-37.499-19.237-52.694l0,0   C324.519,12.322,299.03,0,271.634,0h-31.269c-48.287,0-87.734,38.557-89.179,86.5h-43.3V62.088H37.581V86.5H0v407.4h45.152V512   h55.906v-18.1h309.883V512h55.906v-18.1H512V86.5z M417.517,77.088h40.305V86.5h-40.305V77.088z M240.366,15h31.269   c22.79,0,43.997,10.253,58.181,28.129c9.931,12.517,15.432,27.46,15.996,43.371H308.52c2.331-4.186,3.66-9.003,3.66-14.125   c0-6.027-1.827-11.812-5.283-16.731c-5.454-7.76-14.367-12.394-23.842-12.394h-54.109c-16.06,0-29.125,13.065-29.125,29.125   c0,5.122,1.329,9.939,3.66,14.125h-37.29C167.628,46.829,200.35,15,240.366,15z M214.82,72.375c0-7.789,6.336-14.125,14.125-14.125   h54.109c4.596,0,8.921,2.25,11.569,6.018c1.672,2.38,2.556,5.183,2.556,8.107c0,7.789-6.336,14.125-14.125,14.125h-54.109   C221.157,86.5,214.82,80.164,214.82,72.375z M52.581,77.088h40.305V86.5H52.581V77.088z M86.059,497H60.152v-3.1h25.906L86.059,497   L86.059,497z M451.848,497h-25.906v-3.1h25.906V497z M497,478.9h-30.152h-55.906H101.059H45.152H15V101.5h22.581h70.305h43.255   h77.804h54.109h77.804h41.658h70.305H497V478.9z" data-original="#020202" class=""/>
	<path style="fill:#020202" d="M256,250.548c-26.854,0-48.702,21.848-48.702,48.702s21.848,48.702,48.702,48.702   s48.702-21.848,48.702-48.702S282.854,250.548,256,250.548z M256,332.952c-18.583,0-33.702-15.119-33.702-33.702   s15.119-33.702,33.702-33.702s33.702,15.119,33.702,33.702S274.583,332.952,256,332.952z" data-original="#020202" class=""/>
	<path style="fill:#020202" d="M342.607,250.203l17.149-17.149l-37.56-37.56l-17.149,17.149   c-7.101-4.034-14.629-7.155-22.487-9.322v-24.245h-53.12v24.245c-7.858,2.167-15.386,5.289-22.487,9.322l-17.149-17.149   l-37.56,37.56l17.149,17.149c-4.034,7.102-7.154,14.628-9.322,22.487h-24.245v53.119h24.245c2.168,7.859,5.288,15.385,9.322,22.487   l-17.149,17.149l37.56,37.56l17.149-17.149c7.101,4.034,14.627,7.154,22.487,9.322v24.245h53.119v-24.245   c7.859-2.168,15.386-5.288,22.487-9.322l17.149,17.149l37.56-37.56l-17.149-17.149c4.034-7.102,7.154-14.627,9.322-22.487h24.245   V272.69h-24.245C349.761,264.831,346.641,257.305,342.607,250.203z M361.174,310.81h-21.222l-1.254,5.954   c-2.149,10.201-6.134,19.814-11.845,28.573l-3.323,5.097l15.013,15.013l-16.348,16.347l-15.012-15.012l-5.097,3.323   c-8.759,5.711-18.372,9.696-28.573,11.845l-5.954,1.254v21.222H244.44v-21.222l-5.954-1.254   c-10.201-2.149-19.814-6.134-28.573-11.845l-5.097-3.323l-15.012,15.012l-16.348-16.347l15.013-15.013l-3.323-5.097   c-5.71-8.759-9.696-18.372-11.845-28.573l-1.254-5.954h-21.222v-23.12h21.222l1.254-5.954c2.149-10.201,6.134-19.814,11.845-28.573   l3.323-5.097l-15.013-15.013l16.348-16.347l15.012,15.012l5.097-3.323c8.761-5.711,18.374-9.696,28.573-11.844l5.954-1.254v-21.223   h23.119v21.223l5.954,1.254c10.199,2.148,19.813,6.133,28.573,11.844l5.097,3.323l15.012-15.012l16.348,16.347l-15.013,15.013   l3.323,5.097c5.711,8.759,9.696,18.372,11.845,28.573l1.254,5.954h21.222L361.174,310.81L361.174,310.81z" data-original="#020202" class=""/>
	<path style="fill:#020202" d="M467.24,304.004h-18.7l0.004-13.264l-0.008-104.628h12.48v-42.234h-39.961v42.234h12.482   c0.005,38.274,0.012,97.262,0.006,117.892h-17.881v26.265h-8.491v124.353h67.73V330.269h-7.661V304.004z M436.055,158.878h9.961   v12.234h-9.961V158.878z M430.662,319.004h21.578v11.265h-21.578V319.004z M459.901,439.622h-37.73v-94.353h37.73V439.622z" data-original="#020202" class=""/>
	<path style="fill:#020202" d="M96.538,144.466l-10.41-4.383v44.89l-8.454,4.847l-8.454-4.847v-44.89l-10.41,4.383   c-18.093,7.618-29.784,25.223-29.784,44.852c0,15.937,7.876,30.843,20.817,39.891v198.123c0,15.048,11.935,27.29,26.606,27.29   c8.156,0,15.748-3.757,20.828-10.307c3.726-4.803,5.778-10.834,5.778-16.983v-196.51c14.273-8.77,23.266-24.576,23.266-41.503   C126.322,169.689,114.631,152.084,96.538,144.466z M92.556,219.494c-1.721,0.6-9.423,3.131-16.838,3.131v15   c4.359,0,8.671-0.619,12.338-1.382v191.088c0,2.878-0.909,5.571-2.63,7.789c-2.219,2.86-5.49,4.501-8.976,4.501   c-6.4,0-11.606-5.513-11.606-12.29V220.729l-3.788-2.158c-10.504-5.984-17.03-17.193-17.03-29.253   c0-9.294,3.79-17.933,10.194-24.148v28.494l23.454,13.447l23.454-13.447V165.17c6.405,6.216,10.194,14.855,10.194,24.148   C111.322,202.047,103.963,213.854,92.556,219.494z" data-original="#020202" class=""/>
</g></g> </svg>
