<svg height="496pt" viewBox="0 0 496 496" width="496pt" xmlns="http://www.w3.org/2000/svg"><path d="m424 112c17.679688 0 32 14.320312 32 32s-14.320312 32-32 32zm0 0" fill="#fcd770"/><path d="m72 112v64c-17.679688 0-32-14.320312-32-32s14.320312-32 32-32zm0 0" fill="#fcd770"/><path d="m424 176v40h-8l-72-48v-48l72-48h8zm0 0" fill="#aab2bd"/><path d="m152 120v48l-72 48h-8v-144h8zm0 0" fill="#aab2bd"/><path d="m408 488h-320c0-17.679688 14.320312-32 32-32h256c17.679688 0 32 14.320312 32 32zm0 0" fill="#d3a06c"/><path d="m296 88 16 32h-128l16-32zm0 0" fill="#aab2bd"/><path d="m184 120h160v48h-54.480469c-8.238281-14.320312-23.757812-24-41.519531-24s-33.28125 9.679688-41.519531 24h-54.480469v-48zm0 0" fill="#cf9e76"/><path d="m296 192c0 7.28125-1.601562 14.238281-4.558594 20.398438-7.679687 16.320312-24.242187 27.601562-43.441406 27.601562s-35.761719-11.28125-43.441406-27.601562c-2.957032-6.160157-4.558594-13.117188-4.558594-20.398438 0-8.800781 2.320312-16.960938 6.480469-24 8.238281-14.320312 23.757812-24 41.519531-24s33.28125 9.679688 41.519531 24c4.160157 7.039062 6.480469 15.199219 6.480469 24zm0 0" fill="#ffeaa7"/><path d="m264 192c0 8.835938-7.164062 16-16 16s-16-7.164062-16-16 7.164062-16 16-16 16 7.164062 16 16zm0 0" fill="#fcd770"/><path d="m264 24c0 8.835938-7.164062 16-16 16s-16-7.164062-16-16 7.164062-16 16-16 16 7.164062 16 16zm0 0" fill="#fcd770"/><path d="m480 480h16v16h-16zm0 0"/><path d="m0 480h16v16h-16zm0 0"/><path d="m248 216c13.230469 0 24-10.769531 24-24s-10.769531-24-24-24-24 10.769531-24 24 10.769531 24 24 24zm0-32c4.414062 0 8 3.585938 8 8s-3.585938 8-8 8-8-3.585938-8-8 3.585938-8 8-8zm0 0"/><path d="m341.574219 176 72 48h18.425781v-40.808594c18.230469-3.71875 32-19.871094 32-39.191406s-13.769531-35.472656-32-39.191406v-40.808594h-18.425781l-72 48h-24.628907l-16-32h-44.945312v-33.472656c9.289062-3.3125 16-12.113282 16-22.527344 0-13.230469-10.769531-24-24-24s-24 10.769531-24 24c0 10.414062 6.710938 19.214844 16 22.527344v33.472656h-44.945312l-16 32h-24.628907l-72-48h-18.425781v40.808594c-18.230469 3.71875-32 19.878906-32 39.191406s13.769531 35.472656 32 39.191406v40.808594h18.425781l72-48h4.636719l-30.222656 272h-8.839844c-19.3125 0-35.472656 13.769531-39.191406 32h-48.808594v16h432v-16h-48.808594c-3.71875-18.230469-19.871094-32-39.191406-32h-8.839844l-30.222656-272zm-93.574219-160c4.414062 0 8 3.585938 8 8s-3.585938 8-8 8-8-3.585938-8-8 3.585938-8 8-8zm200 128c0 10.414062-6.710938 19.214844-16 22.527344v-45.046875c9.289062 3.304687 16 12.105469 16 22.519531zm-32-62.382812v124.765624l-64-42.664062v-39.4375zm-211.054688 14.382812h86.109376l8 16h-102.109376zm-44.945312 32h176v32h-42.113281c-10.132813-14.488281-26.910157-24-45.886719-24s-35.753906 9.511719-45.886719 24h-42.113281zm4.792969 208 83.207031-39.160156 83.199219 39.160156zm166.414062 16-83.207031 39.152344-83.207031-39.152344zm-172.160156-30.992188 6.976563-62.742187 63.175781 29.734375zm70.160156 78.992188-83.285156 39.191406 8.277344-74.488281zm18.792969 8.847656 83.207031 39.152344h-166.414062zm18.800781-8.847656 75.007813-35.296875 8.28125 74.488281zm-.007812-112 63.183593-29.734375 6.976563 62.75zm61.320312-46.542969-80.113281 37.695313-80.113281-37.703125.34375-3.074219 33.066406-15.558594c10.03125 15.160156 27.214844 25.183594 46.703125 25.183594s36.671875-10.023438 46.703125-25.175781l33.066406 15.558593zm-120.113281-49.457031c0-22.054688 17.945312-40 40-40s40 17.945312 40 40-17.945312 40-40 40-40-17.945312-40-40zm-160-48c0-10.414062 6.710938-19.214844 16-22.527344v45.046875c-9.289062-3.304687-16-12.105469-16-22.519531zm32 62.382812v-124.765624l64 42.664062v39.4375zm114.359375-30.382812c-1.519531 5.070312-2.359375 10.441406-2.359375 16 0 5.6875.863281 11.175781 2.449219 16.351562l-24.144531 11.359376 4.855468-43.710938zm204.167969 304h-301.054688c3.3125-9.289062 12.113282-16 22.527344-16h256c10.414062 0 19.214844 6.710938 22.527344 16zm-72.832032-260.289062-24.144531-11.359376c1.585938-5.175781 2.449219-10.664062 2.449219-16.351562 0-5.558594-.839844-10.929688-2.359375-16h19.199219zm0 0"/></svg>