<?xml version="1.0"?>
<svg xmlns="http://www.w3.org/2000/svg" xmlns:xlink="http://www.w3.org/1999/xlink" version="1.1" id="Layer_1" x="0px" y="0px" viewBox="0 0 280.028 280.028" style="enable-background:new 0 0 280.028 280.028;" xml:space="preserve" width="512px" height="512px" class=""><g><g>
	<path style="fill:#438C27" d="M140.014,0c77.323,0,140.014,62.691,140.014,140.014c0,77.314-62.691,140.014-140.014,140.014   S0,217.336,0,140.014S62.682,0,140.014,0z" data-original="#EBEBEB" class="" data-old_color="#448D27"/>
	<path style="fill:#FCFCFC" d="M78.749,113.787h35.135V78.749c0-4.83,3.912-8.751,8.742-8.751h34.968   c4.822,0,8.733,3.92,8.733,8.751v35.03h34.951c4.839,0,8.751,3.912,8.751,8.751v35.012c0,4.848-3.912,8.768-8.751,8.768h-34.951   v34.933c0,4.839-3.912,8.751-8.733,8.751h-34.968c-4.83,0-8.742-3.912-8.742-8.751V166.31H78.749c-4.839,0-8.76-3.92-8.76-8.768   V122.53C69.989,117.699,73.91,113.787,78.749,113.787z" data-original="#E2574C" class="active-path" data-old_color="#FBFAFA"/>
</g></g> </svg>
