<?xml version="1.0" encoding="iso-8859-1"?>
<!-- Generator: Adobe Illustrator 19.0.0, SVG Export Plug-In . SVG Version: 6.00 Build 0)  -->
<svg version="1.1" id="Capa_1" xmlns="http://www.w3.org/2000/svg" xmlns:xlink="http://www.w3.org/1999/xlink" x="0px" y="0px"
	 viewBox="0 0 512 512" style="enable-background:new 0 0 512 512;" xml:space="preserve">
<g>
	
		<rect x="251.745" y="124.19" transform="matrix(0.7071 0.7071 -0.7071 0.7071 220.1937 -192.4981)" style="fill:#F63D53;" width="181.435" height="90.718"/>
	<polygon style="fill:#EE1E4C;" points="374.536,265.768 246.238,137.469 222.184,209.639 302.367,289.823 	"/>
	<path style="fill:#F63D53;" d="M302.367,289.823l-80.183-80.184L14.915,416.906c-6.545,6.546-6.543,17.252,0.001,23.796
		l56.387,56.387c6.544,6.543,17.252,6.546,23.797,0l95.275-95.274c-0.012,0.012-0.023,0.023-0.034,0.034
		c-8.827,8.753-23.21,8.73-32.006-0.067c-8.822-8.82-8.822-23.255,0-32.075l41.982-41.983l0.047-0.047
		c8.821-8.82,23.255-8.82,32.074,0.001c8.817,8.817,8.821,23.243,0.012,32.063L302.367,289.823z"/>
	<path style="fill:#E1E6E9;" d="M200.318,359.797c-8.821-8.821-8.821-23.255-0.001-32.074l-41.982,41.983
		c-8.822,8.821-8.822,23.255,0,32.075c8.797,8.798,23.18,8.82,32.006,0.067l42.041-42.04
		C223.56,368.618,209.135,368.615,200.318,359.797z"/>
	<path style="fill:#4AD194;" d="M200.317,327.723c-8.82,8.82-8.82,23.254,0.001,32.074c8.816,8.817,23.242,8.82,32.063,0.011
		l0.057-0.058c0.004-0.004,0.008-0.007,0.012-0.011c0.001-0.001,0.002-0.003,0.004-0.004c8.806-8.822,8.801-23.245-0.016-32.06
		c-8.82-8.821-23.254-8.821-32.074,0L200.317,327.723z"/>
</g>
<path d="M317.458,66.25c-3.904-3.905-10.236-3.905-14.142,0l-64.149,64.149c-0.139,0.139-0.264,0.288-0.394,0.434
	c-0.066,0.074-0.135,0.144-0.199,0.219c-0.248,0.295-0.478,0.603-0.689,0.922c-0.036,0.055-0.066,0.114-0.101,0.169
	c-0.172,0.273-0.331,0.553-0.475,0.841c-0.051,0.102-0.099,0.206-0.147,0.31c-0.125,0.271-0.236,0.546-0.336,0.827
	c-0.022,0.064-0.054,0.122-0.076,0.187l-23.308,69.93L7.843,409.835c-10.458,10.46-10.458,27.479,0.001,37.936l56.387,56.387
	c5.054,5.054,11.791,7.838,18.97,7.838c7.178,0,13.915-2.783,18.968-7.836L221.72,384.609l17.788-17.788
	c0.001-0.001,0.002-0.002,0.003-0.003l68.255-68.255l69.931-23.309c0.053-0.018,0.102-0.044,0.155-0.063
	c0.299-0.105,0.593-0.225,0.882-0.358c0.082-0.038,0.165-0.074,0.246-0.114c0.341-0.17,0.677-0.355,1.001-0.566
	c0.006-0.004,0.014-0.007,0.02-0.012c0.323-0.211,0.635-0.447,0.937-0.7c0.089-0.075,0.171-0.156,0.258-0.233
	c0.137-0.122,0.277-0.237,0.408-0.369l64.149-64.148c1.875-1.875,2.929-4.419,2.929-7.071s-1.054-5.196-2.929-7.071L317.458,66.25z
	 M250.608,155.982l105.416,105.415l-50.956,16.985l-71.444-71.444L250.608,155.982z M174.371,398.397
	c-3.405,0-6.589-1.309-8.967-3.687c-2.378-2.377-3.687-5.561-3.687-8.966s1.31-6.589,3.688-8.967l20.687-20.686
	c1.593,3.924,3.978,7.6,7.156,10.778c3.128,3.128,6.788,5.538,10.777,7.155l-20.688,20.688
	C180.96,397.088,177.776,398.397,174.371,398.397z M207.435,334.747c2.08-2.08,4.778-3.343,7.702-3.626
	c0.417-0.04,0.839-0.061,1.265-0.061c0.426,0,0.848,0.021,1.265,0.061c2.923,0.283,5.621,1.545,7.701,3.626
	c2.377,2.378,3.687,5.562,3.687,8.967s-1.309,6.589-3.733,9.014c-2.378,2.377-5.562,3.686-8.966,3.686
	c-3.405,0-6.589-1.309-8.966-3.686c-4.943-4.943-4.944-12.984,0.042-17.976L207.435,334.747z M246.665,331.383
	c-1.618-3.99-4.027-7.65-7.155-10.778c-6.155-6.155-14.362-9.545-23.109-9.545c-1.988,0-3.946,0.184-5.861,0.527
	c-6.508,1.166-12.492,4.262-17.247,9.018l-42.029,42.029c-6.156,6.155-9.546,14.362-9.546,23.11c0,8.747,3.391,16.955,9.546,23.108
	c3.128,3.128,6.788,5.538,10.777,7.155l-74.013,74.013c-1.276,1.276-2.991,1.979-4.827,1.979c-1.837,0-3.552-0.703-4.828-1.98
	L21.987,433.63c-2.662-2.662-2.662-6.992-0.001-9.654l200.198-200.195l66.041,66.042L246.665,331.383z M374.537,251.625
	L260.38,137.469l50.007-50.006L424.543,201.62L374.537,251.625z"/>
<path d="M415.02,106.986c2.559,0,5.119-0.977,7.071-2.929l35.635-35.636c3.905-3.905,3.905-10.237,0-14.142
	c-3.905-3.905-10.237-3.905-14.142,0l-35.635,35.636c-3.905,3.905-3.905,10.237,0,14.142
	C409.902,106.01,412.461,106.986,415.02,106.986z"/>
<path d="M346.099,68.346c0.867,0.233,1.737,0.343,2.594,0.343c4.415,0,8.456-2.947,9.653-7.415l13.043-48.68
	c1.429-5.334-1.737-10.818-7.071-12.247c-5.336-1.431-10.818,1.736-12.247,7.071L339.027,56.1
	C337.598,61.435,340.764,66.917,346.099,68.346z"/>
<path d="M511.657,147.688c-1.43-5.335-6.911-8.502-12.248-7.071l-48.68,13.044c-5.335,1.429-8.5,6.913-7.071,12.248
	c1.197,4.468,5.237,7.414,9.653,7.414c0.856,0,1.728-0.111,2.595-0.343l48.68-13.044
	C509.921,158.507,513.086,153.023,511.657,147.688z"/>
<path d="M302.693,121.233c-3.905,3.905-3.905,10.237,0,14.142l29.017,29.016c1.953,1.953,4.512,2.929,7.071,2.929
	c2.559,0,5.118-0.976,7.071-2.929c3.905-3.905,3.905-10.237,0-14.142l-29.017-29.016
	C312.929,117.329,306.598,117.329,302.693,121.233z"/>
<path d="M352.199,184.885c1.952,1.946,4.506,2.918,7.061,2.918c2.564,0,5.128-0.98,7.082-2.939
	c3.899-3.911,3.89-10.242-0.021-14.142l-0.167-0.167c-3.911-3.899-10.243-3.89-14.142,0.021c-3.899,3.911-3.89,10.242,0.021,14.142
	L352.199,184.885z"/>
<g>
</g>
<g>
</g>
<g>
</g>
<g>
</g>
<g>
</g>
<g>
</g>
<g>
</g>
<g>
</g>
<g>
</g>
<g>
</g>
<g>
</g>
<g>
</g>
<g>
</g>
<g>
</g>
<g>
</g>
</svg>
