<svg height="512pt" viewBox="0 -32 512.00113 512" width="512pt" xmlns="http://www.w3.org/2000/svg"><path d="m479.144531 152.265625c-2.742187 15.9375-10.910156 30.144531-23.226562 40.640625-1.695313 1.433594-3.476563 2.816406-5.328125 4.113281-1.140625.800781-82.179688-111.050781-79.128906-113.179687 15.207031-10.671875 33.492187-14.808594 51.488281-11.628906 18.078125 3.179687 33.917969 13.34375 44.570312 28.59375.054688.085937.121094.179687.175781.261718 10.46875 15.113282 14.527344 33.285156 11.449219 51.199219zm0 0" fill="#ffb600"/><path d="m221.222656 360.25-7.492187-10.726562c-.921875-1.316407-2.328125-2.214844-3.910157-2.492188-1.578124-.28125-3.210937.082031-4.527343 1.007812l-47.804688 33.542969c-2.726562 1.914063-3.390625 5.671875-1.484375 8.40625l7.496094 10.722657c2.929688 4.195312 7.316406 6.992187 12.347656 7.878906 1.121094.199218 2.242188.292968 3.355469.292968 3.886719 0 7.675781-1.1875 10.925781-3.46875l26.402344-18.523437c8.625-6.054687 10.730469-18.003906 4.691406-26.640625zm0 0" fill="#606b7c"/><path d="m103.789062 420.828125-60.726562-86.910156c-1.109375-1.582031-2.800781-2.664063-4.707031-3-1.902344-.335938-3.863281.101562-5.445313 1.210937-12.871094 9.03125-21.539062 22.761719-24.410156 38.667969-2.898438 16.054687.558594 32.128906 9.730469 45.257813.285156.40625.609375.777343.964843 1.117187 9.144532 12.433594 22.613282 20.746094 38.082032 23.472656 3.5.617188 7.03125.921875 10.546875.921875 12.242187 0 24.289062-3.683594 34.179687-10.621094 3.285156-2.304687 4.082032-6.832031 1.785156-10.117187zm0 0" fill="#ededed"/><path d="m257.03125 184.765625-223.128906 155.429687c-2.191406 1.535157-2.722656 4.550782-1.191406 6.742188l52.160156 84.550781c1.539062 2.199219 4.570312 2.734375 6.769531 1.191407l226.898437-159.203126zm0 0" fill="#ccc"/><path d="m319.683594 271.507812-81.871094 57.449219-62.78125-89.847656 81.863281-57.445313zm0 0" fill="#606b7c"/><path d="m496.683594 262.566406-171.796875-245.859375c-1.050781-1.503906-2.65625-2.527343-4.464844-2.84375-1.808594-.324219-3.667969.09375-5.171875 1.148438-2.832031 1.988281-5.023438 4.933593-6.171875 8.292969l-53.4375 156.878906c-.710937 2.082031-.386719 4.375.875 6.179687l57.644531 82.496094c1.265625 1.808594 3.320313 2.90625 5.527344 2.949219l165.394531 3.339844h.003907c.109374.003906.21875.003906.328124.003906 3.433594 0 6.824219-1.054688 9.574219-2.984375 3.117188-2.183594 3.875-6.480469 1.695313-9.601563zm0 0" fill="#ccc"/><path d="m478.101562 154.421875c-2.957031 17.1875-11.765624 32.503906-25.042968 43.824219l-12.660156-18.128906c13.277343-11.308594 24.835937-28.554688 27.796874-45.742188 2.046876-11.898438 1.179688-23.894531-2.441406-35.164062 11.289063 16.296874 15.667969 35.894531 12.347656 55.210937zm0 0" fill="#dd9300"/><path d="m95.589844 431.757812c-9.316406 5.730469-20.246094 8.757813-31.34375 8.757813-3.519532 0-7.050782-.308594-10.546875-.917969-15.46875-2.730468-28.9375-11.039062-38.085938-23.476562-.347656-.339844-.679687-.710938-.957031-1.121094-3.949219-5.648438-6.832031-11.828125-8.621094-18.328125 9.128906 12.128906 22.425782 20.238281 37.664063 22.925781 3.507812.613282 7.039062.921875 10.546875.921875 8.660156 0 17.207031-1.839843 24.976562-5.367187l10.449219 14.945312c1.339844 1.929688 3.847656 2.582032 5.917969 1.660156zm0 0" fill="#ddd"/><path d="m234.609375 331.609375-134.476563 94.34375-.609374.4375c-.847657.59375-1.71875 1.152344-2.597657 1.703125-2.070312.917969-4.582031.269531-5.921875-1.660156l-10.445312-14.949219c2.179687-.988281 6.355468-3.378906 6.367187-3.386719.289063-.121094 135.015625-94.613281 135.015625-94.613281zm0 0" fill="#b2b2b2"/><path d="m500.078125 272c-2.898437 2.042969-6.46875 3.152344-10.085937 3.152344-.113282 0-.230469-.011719-.339844-.011719-.011719 0-.011719 0-.011719 0l-171.859375-3.460937h-.011719l-2.367187-.046876c-2.320313-.050781-4.492188-1.210937-5.820313-3.109374l-8.488281-12.148438 6.699219-4.691406 7.886719.160156h.011718l163.953125 3.300781h.007813c.109375 0 .230468.011719.351562.011719 3.617188 0 7.179688-1.113281 10.078125-3.152344 1.207031-.847656 2.089844-2 2.589844-3.277344l9.1875 13.15625c2.296875 3.289063 1.5 7.820313-1.78125 10.117188zm0 0" fill="#b2b2b2"/><g fill="#485568"><path d="m260.824219 312.910156-20.238281 14.199219-12.667969-18.128906 20.238281-14.195313zm0 0"/><path d="m285.601562 295.589844-16.453124 11.546875-12.117188-18.5 15.914062-11.164063zm0 0"/><path d="m318.539062 272.625-24.246093 17.007812-12.65625-18.117187 20.226562-14.199219 8.488281 12.148438c1.332032 1.902344 3.5 3.058594 5.820313 3.109375zm0 0"/></g><path d="m510.648438 270.273438-49.507813-70.90625c13.679687-11.664063 22.757813-27.457032 25.804687-45.175782 3.449219-20.03125-1.132812-40.351562-12.90625-57.214844-11.84375-16.960937-29.433593-28.253906-49.519531-31.796874-17.546875-3.097657-35.339843.066406-50.851562 8.902343l-11.753907-16.832031c-2.371093-3.398438-7.046874-4.230469-10.441406-1.855469-3.398437 2.371094-4.226562 7.046875-1.855468 10.441407l141.710937 202.964843-168.675781-3.40625-58.210938-83.367187 54.5-160.121094 10.636719 15.234375c2.371094 3.398437 7.046875 4.230469 10.445313 1.855469 3.394531-2.371094 4.226562-7.046875 1.855468-10.441406l-17.699218-25.347657c-1.140626-1.632812-2.886719-2.746093-4.847657-3.09375-1.960937-.34375-3.980469.105469-5.609375 1.25-3.078125 2.160157-5.457031 5.355469-6.699218 9.007813l-57.21875 168.101562-155.28125 109.054688c-3.390626 2.378906-4.210938 7.058594-1.828126 10.445312 2.378907 3.394532 7.058594 4.210938 10.445313 1.828125l70.625-49.597656 53.976563 77.3125-132.820313 93.265625-53.984375-77.316406 33.554688-23.558594c3.390624-2.382812 4.207031-7.058594 1.828124-10.449219-2.378906-3.390625-7.058593-4.207031-10.445312-1.828125l-39.679688 27.859375c-13.257812 9.3125-22.191406 23.472657-25.148437 39.871094-2.984375 16.554687.433594 33.226563 10.027344 46.664063 10.457031 14.648437 28.621093 26.304687 51.09375 26.304687 12.617187 0 25.027343-3.796875 35.21875-10.949219l54.890625-38.546875 4.988281 7.140625c3.632813 5.203125 9.070313 8.675782 15.3125 9.777344 1.390625.246094 2.777344.367188 4.160156.367188 4.820313 0 9.519531-1.476563 13.550781-4.308594l32.738282-22.984375c10.691406-7.511719 13.300781-22.339844 5.816406-33.0625l-5.011719-7.175781 97.15625-68.222657 177.070313 3.574219c.121094.003906.242187.003906.363281.003906 3.726563 0 7.402344-1.144531 10.386719-3.238281 3.386718-2.375 4.207031-7.042969 1.839844-10.429687zm-88.734376-190.324219c16.136719 2.847656 30.277344 11.945312 39.824219 25.617187 18.371094 26.308594 14.023438 60.703125-9.226562 81.4375l-70.214844-100.558594c12.1875-6.589843 26.003906-8.894531 39.617187-6.496093zm-128.8125 201.667969-53.980468-77.3125 15.152344-10.640626 53.980468 77.3125zm-66.253906-68.691407 53.980469 77.3125-14.269531 10.019531-53.980469-77.3125zm-26.542968 18.636719 53.980468 77.3125-14.265625 10.019531-53.980469-77.308593zm-146.394532 201.046875c-19.128906-1.9375-31.253906-20.234375-31.273437-20.261719-12.316407-18.773437-9.207031-44.3125 6.390625-59.742187l53.25 76.269531c-8.644532 4.089844-18.542969 4.730469-28.367188 3.734375zm162.636719-68.257813c2.761719 3.957032 1.800781 9.425782-2.140625 12.195313l-32.734375 22.988281c-1.902344 1.332032-4.203125 1.84375-6.488281 1.441406-2.289063-.402343-4.28125-1.675781-5.617188-3.589843l-5.011718-7.175781 47.003906-33.003907zm0 0"/></svg>