<?xml version="1.0"?>
<svg xmlns="http://www.w3.org/2000/svg" xmlns:xlink="http://www.w3.org/1999/xlink" version="1.1" id="Capa_1" x="0px" y="0px" viewBox="0 0 480.011 480.011" style="enable-background:new 0 0 480.011 480.011;" xml:space="preserve" width="512px" height="512px" class=""><g><path style="fill:#777F7F" d="M153.352,324.451l-10.584-15.88L19.32,432.011l28.688,28.688l123.44-123.44l-15.88-10.584  C154.696,326.083,153.944,325.323,153.352,324.451z M45.664,445.667l-11.312-11.312l16-16l11.312,11.312L45.664,445.667z" data-original="#71D3CC" class="" data-old_color="#71D3CC"/><path style="fill:#777F7F" d="M408.904,17.875l-253.2,222.504l11.448,11.448l18.464-24.624c2.648-3.536,7.664-4.248,11.192-1.6  l3.864,2.896l201.912-186.36c3.16-2.912,8.056-2.832,11.088,0.216l24,24c3.04,3.04,3.136,7.928,0.216,11.088L251.512,279.347  l2.896,3.864c2.656,3.528,1.936,8.544-1.6,11.192l-24.624,18.464l11.448,11.448l222.504-253.2l-19.96-33.28L408.904,17.875z" data-original="#62B8B1" class="" data-old_color="#767F7F"/><path style="fill:#FBFBFB" d="M230.408,251.211l11.336,15.12L420.912,72.227l-13.128-13.128L213.688,238.275l15.12,11.336  C229.416,250.067,229.96,250.603,230.408,251.211z" data-original="#BD3633" class="active-path" data-old_color="#F9F9F9"/><path style="fill:#777F7F" d="M218.304,261.723l-24.688-18.512l-39.808,53.072l11.968,17.96l17.96,11.968l53.072-39.808  L218.304,261.723z M189.664,301.667l-11.312-11.312l16-16l11.312,11.312L189.664,301.667z" data-original="#71D3CC" class="" data-old_color="#71D3CC"/><g>
	
		<rect x="36.691" y="424.034" transform="matrix(-0.7071 0.7071 -0.7071 -0.7071 387.4403 703.5848)" style="fill:#1C2121" width="22.624" height="16" data-original="#1C2121" class=""/>
	<path style="fill:#1C2121" d="M228.008,464.011H67.32l121.952-121.952l25.984-19.488l19.096,19.096   c1.504,1.504,3.544,2.344,5.656,2.344c0.088,0,0.168,0,0.256-0.008c2.208-0.072,4.288-1.048,5.752-2.712l232-264   c2.296-2.616,2.64-6.416,0.848-9.4l-24-40c-0.672-1.128-1.616-2.072-2.744-2.744l-40-24c-2.984-1.8-6.784-1.456-9.4,0.848l-264,232   c-1.664,1.464-2.64,3.536-2.712,5.752c-0.08,2.208,0.776,4.352,2.336,5.912l19.096,19.096l-19.488,25.984L2.352,426.355   c-3.128,3.128-3.128,8.184,0,11.312l40,40c1.568,1.56,3.616,2.344,5.656,2.344h180c15.44,0,28-12.56,28-28s-12.56-28-28-28h-40   c-6.616,0-12-5.384-12-12s5.384-12,12-12h92v-16h-92c-15.44,0-28,12.56-28,28s12.56,28,28,28h40c6.616,0,12,5.384,12,12   S234.632,464.011,228.008,464.011z M155.696,240.387l253.2-222.504l33.28,19.96l19.96,33.28l-222.504,253.2l-11.448-11.448   l24.624-18.464c3.536-2.648,4.256-7.664,1.6-11.192l-2.896-3.864L437.888,77.451c2.912-3.16,2.824-8.048-0.216-11.088l-24-24   c-3.032-3.048-7.928-3.136-11.088-0.216L200.672,228.515l-3.864-2.904c-3.528-2.648-8.544-1.936-11.192,1.6l-18.464,24.624   L155.696,240.387z M230.408,251.211c-0.456-0.608-0.992-1.152-1.6-1.6l-15.12-11.336L407.792,59.107l13.128,13.128L241.752,266.331   L230.408,251.211z M193.616,243.211l24.688,18.504l18.504,24.688l-53.072,39.808l-17.96-11.968l-11.968-17.96L193.616,243.211z    M19.32,432.011l123.44-123.44l10.584,15.88c0.584,0.872,1.344,1.632,2.216,2.216l15.88,10.584L48,460.691L19.32,432.011z" data-original="#1C2121" class=""/>
	
		<rect x="180.691" y="280.013" transform="matrix(-0.7071 0.7071 -0.7071 -0.7071 531.4256 355.9026)" style="fill:#1C2121" width="22.624" height="16" data-original="#1C2121" class=""/>
</g></g> </svg>
