<?xml version="1.0"?>
<svg xmlns="http://www.w3.org/2000/svg" height="512px" viewBox="-61 0 423 423.25333" width="512px" class=""><g><path d="m61.457031 20.480469h28.078125v61.441406h-28.078125zm0 0" fill="#feda38" data-original="#FEDA38" class=""/><path d="m89.53125 88.746094h-28.078125c-3.773437 0-6.828125-3.054688-6.828125-6.824219v-61.441406c0-3.769531 3.054688-6.828125 6.828125-6.828125h28.078125c3.773438 0 6.828125 3.058594 6.828125 6.828125v61.441406c0 3.769531-3.054687 6.824219-6.828125 6.824219zm-21.253906-13.652344h14.429687v-47.785156h-14.429687zm0 0" data-original="#000000"/><path d="m41.636719 6.828125h68.378906v40.957031h-68.378906zm0 0" fill="#606060" data-original="#606060" class=""/><path d="m110.011719 54.613281h-68.378907c-3.773437 0-6.828124-3.054687-6.828124-6.828125v-40.957031c0-3.773437 3.054687-6.828125 6.828124-6.828125h68.378907c3.773437 0 6.828125 3.054688 6.828125 6.828125v40.957031c0 3.773438-3.054688 6.828125-6.828125 6.828125zm-61.550781-13.652343h54.722656v-27.308594h-54.722656zm0 0" data-original="#000000"/><path d="m75.550781 68.265625c-37.773437 0-68.402343 30.535156-68.582031 68.269531h137.160156c-.179687-37.734375-30.804687-68.269531-68.578125-68.269531zm0 0" fill="#ee5281" data-original="#EE5281" class="active-path" style="fill:#66C347" data-old_color="#67C448"/><path d="m144.132812 143.359375h-137.167968c-1.8125 0-3.558594-.722656-4.839844-2.011719-1.28125-1.285156-1.992188-3.03125-1.988281-4.847656.203125-41.386719 34.03125-75.058594 75.410156-75.058594s75.203125 33.667969 75.414063 75.058594c.007812 1.816406-.707032 3.558594-1.988282 4.847656-1.28125 1.289063-3.027344 2.011719-4.839844 2.011719zm-129.925781-13.652344h122.6875c-3.574219-30.679687-29.78125-54.613281-61.347656-54.613281-31.574219 0-57.773437 23.933594-61.339844 54.613281zm0 0" data-original="#000000"/><path d="m6.953125 163.730469h137.191406v157.121093h-137.191406zm0 0" fill="#ee5281" data-original="#EE5281" class="active-path" style="fill:#66C347" data-old_color="#67C448"/><path d="m144.144531 327.679688h-137.191406c-3.773437 0-6.828125-3.054688-6.828125-6.828126v-157.121093c0-3.769531 3.054688-6.828125 6.828125-6.828125h137.195313c3.773437 0 6.824218 3.058594 6.824218 6.828125v157.121093c0 3.773438-3.054687 6.828126-6.828125 6.828126zm-130.363281-13.652344h123.539062v-143.46875h-123.539062zm0 0" data-original="#000000"/><path d="m6.953125 392.523438c0 13.203124 10.699219 23.902343 23.898437 23.902343h89.394532c13.199218 0 23.902344-10.699219 23.902344-23.902343v-44.363282h-137.195313zm0 0" fill="#ee5281" data-original="#EE5281" class="active-path" style="fill:#66C347" data-old_color="#67C448"/><path d="m120.246094 423.253906h-89.394532c-16.9375 0-30.726562-13.785156-30.726562-30.726562v-44.367188c0-3.769531 3.054688-6.828125 6.828125-6.828125h137.195313c3.773437 0 6.824218 3.058594 6.824218 6.828125v44.367188c0 16.941406-13.785156 30.726562-30.726562 30.726562zm-106.464844-68.265625v37.539063c0 9.414062 7.660156 17.074218 17.070312 17.074218h89.394532c9.414062 0 17.074218-7.660156 17.074218-17.074218v-37.539063zm0 0" data-original="#000000"/><path d="m144.144531 136.863281c0-.113281-.015625-.21875-.015625-.328125h-137.160156c0 .109375-.015625.214844-.015625.328125v26.867188h137.191406zm0 0" fill="#feda38" data-original="#FEDA38" class=""/><path d="m144.144531 170.558594h-137.191406c-3.773437 0-6.828125-3.058594-6.828125-6.828125v-26.867188c0-3.769531 3.070312-7.15625 6.84375-7.15625h137.164062c3.773438 0 6.828126 3.058594 6.828126 6.828125l.011718.328125v26.867188c0 3.769531-3.054687 6.828125-6.828125 6.828125zm-130.359375-13.65625h123.535156v-13.542969h-123.535156zm0 0" data-original="#000000"/><path d="m6.953125 320.851562h137.191406v27.308594h-137.191406zm0 0" fill="#feda38" data-original="#FEDA38" class=""/><path d="m144.144531 354.988281h-137.191406c-3.773437 0-6.828125-3.058593-6.828125-6.828125v-27.308594c0-3.769531 3.054688-6.824218 6.828125-6.824218h137.195313c3.773437 0 6.824218 3.054687 6.824218 6.824218v27.308594c0 3.769532-3.054687 6.828125-6.828125 6.828125zm-130.363281-13.65625h123.539062v-13.652343h-123.539062zm0 0" data-original="#000000"/><path d="m253.371094 197.972656c-3.773438 0-6.824219-3.054687-6.824219-6.824218v-42.902344c0-63.988282-50.980469-114.113282-116.054687-114.113282h-20.480469c-3.773438 0-6.828125-3.054687-6.828125-6.824218 0-3.773438 3.054687-6.828125 6.828125-6.828125h20.480469c72.734374 0 129.707031 56.125 129.707031 127.765625v42.902344c0 3.769531-3.054688 6.824218-6.828125 6.824218zm0 0" data-original="#000000"/><path d="m65.3125 293.546875h-6.171875c-9.59375 0-17.394531-7.804687-17.394531-17.394531v-47.132813c0-9.589843 7.800781-17.390625 17.394531-17.390625h6.171875c9.59375 0 17.394531 7.800782 17.394531 17.390625v47.132813c0 9.589844-7.800781 17.394531-17.394531 17.394531zm-6.171875-68.265625c-2.0625 0-3.738281 1.675781-3.738281 3.738281v47.132813c0 2.0625 1.675781 3.738281 3.738281 3.738281h6.171875c2.058594 0 3.738281-1.675781 3.738281-3.738281v-47.132813c0-2.0625-1.679687-3.738281-3.738281-3.738281zm0 0" data-original="#000000"/><path d="m103.183594 232.105469h-6.824219c-7.527344 0-13.652344-6.121094-13.652344-13.652344v-6.828125c0-7.527344 6.125-13.652344 13.652344-13.652344v-6.824218h-6.828125c-3.773438 0-6.824219-3.058594-6.824219-6.828126 0-3.769531 3.050781-6.828124 6.824219-6.828124h6.828125c7.527344 0 13.652344 6.125 13.652344 13.65625v6.824218c0 7.53125-6.125 13.652344-13.652344 13.652344v6.828125h6.824219c3.773437 0 6.828125 3.058594 6.828125 6.828125s-3.054688 6.824219-6.828125 6.824219zm0 0" data-original="#000000"/><path d="m239.828125 188.503906h29.730469v34.683594h-29.730469zm0 0" fill="#feda38" data-original="#FEDA38" class=""/><path d="m269.558594 230.011719h-29.726563c-3.773437 0-6.824219-3.054688-6.824219-6.824219v-34.683594c0-3.769531 3.050782-6.828125 6.824219-6.828125h29.726563c3.773437 0 6.828125 3.058594 6.828125 6.828125v34.683594c0 3.769531-3.054688 6.824219-6.828125 6.824219zm-22.898438-13.652344h16.074219v-21.03125h-16.074219zm0 0" data-original="#000000"/><path d="m294.332031 249.832031c0-21.890625-18.339843-39.636719-40.960937-39.636719s-40.960938 17.746094-40.960938 39.636719c0 21.894531 18.339844 39.640625 40.960938 39.640625s40.960937-17.746094 40.960937-39.640625zm0 0" fill="#fff" data-original="#FFF" class="" style="fill:#FFF"/><path d="m253.371094 296.300781c-26.347656 0-47.785156-20.84375-47.785156-46.46875 0-25.621093 21.4375-46.464843 47.785156-46.464843s47.789062 20.84375 47.789062 46.464843c0 25.625-21.441406 46.46875-47.789062 46.46875zm0-79.277343c-18.820313 0-34.132813 14.71875-34.132813 32.808593 0 18.097657 15.3125 32.816407 34.132813 32.816407 18.820312 0 34.132812-14.71875 34.132812-32.816407 0-18.089843-15.3125-32.808593-34.132812-32.808593zm0 0" data-original="#000000"/><path d="m253.371094 238.933594-6.824219 13.652344h13.652344" fill="#fff" data-original="#FFF" class="" style="fill:#FFF"/><path d="m260.199219 259.414062h-13.652344c-2.367187 0-4.5625-1.226562-5.808594-3.238281-1.246093-2.011719-1.359375-4.523437-.300781-6.640625l6.828125-13.65625c1.691406-3.371094 5.789063-4.738281 9.160156-3.050781 3.371094 1.683594 4.738281 5.785156 3.054688 9.160156l-1.886719 3.773438h2.605469c3.773437 0 6.828125 3.054687 6.828125 6.824219 0 3.769531-3.054688 6.828124-6.828125 6.828124zm0 0" data-original="#000000"/></g> </svg>
