<?xml version="1.0"?>
<svg xmlns="http://www.w3.org/2000/svg" height="512px" viewBox="-26 0 511 512" width="512px" class=""><g><path d="m387.539062 254.488281 52.0625 34.292969c10.277344 6.773438 13.121094 20.59375 6.351563 30.875l-54.417969 82.613281c-6.773437 10.277344-20.59375 13.121094-30.875 6.351563l-52.0625-34.296875zm0 0" fill="#686c83" data-original="#686C83" class="" style="fill:#BB471E" data-old_color="#BC481F"/><path d="m72.578125 254.488281-52.0625 34.292969c-10.277344 6.773438-13.121094 20.59375-6.351563 30.875l54.417969 82.613281c6.773438 10.277344 20.59375 13.121094 30.875 6.351563l52.0625-34.296875zm0 0" fill="#686c83" data-original="#686C83" class="" style="fill:#BB471E" data-old_color="#BC481F"/><path d="m292.058594 394.332031 91.976562-140.09375c19.804688-30.167969 30.355469-65.464843 30.355469-101.550781 0-37.398438-14.683594-73.304688-40.890625-99.984375-26.828125-27.316406-63.507812-42.703125-101.796875-42.703125h-83.289063c-38.289062 0-74.96875 15.386719-101.796874 42.703125-26.207032 26.679687-40.890626 62.585937-40.890626 99.984375 0 36.085938 10.550782 71.382812 30.355469 101.550781l91.976563 140.09375zm0 0" fill="#898998" data-original="#898998" class="active-path" style="fill:#D46D45" data-old_color="#D36C45"/><path d="m300.058594 432c0 38.660156-31.339844 70-70 70s-70-31.339844-70-70 31.339844-70 70-70 70 31.339844 70 70zm0 0" fill="#d8d8e4" data-original="#D8D8E4"/><path d="m49.207031 147.683594c1.402344-21.996094 12.964844-42.15625 31.394531-54.246094 28.925782-18.980469 62.992188-29.320312 98.132813-29.320312h104.414063c34.8125 0 68.566406 10.148437 97.316406 28.789062 19.027344 12.335938 30.59375 33.410156 31.359375 56.078125.613281 18.015625-5.738281 35.574219-17.734375 49.03125l-37.707032 42.292969c-8.902343 9.980468-21.640624 15.691406-35.015624 15.691406-18.105469 0-34.59375-10.421875-42.367188-26.773438l-11.59375-24.398437c-5.710938-12.011719-17.820312-19.664063-31.117188-19.664063h-12.460937c-13.296875 0-25.40625 7.652344-31.113281 19.664063l-11.597656 24.398437c-7.773438 16.351563-24.261719 26.773438-42.367188 26.773438-13.375 0-26.113281-5.710938-35.015625-15.691406l-36.8125-41.292969c-12.53125-14.050781-18.910156-32.539063-17.714844-51.332031zm0 0" fill="#ade5ff" data-original="#ADE5FF" class=""/><path d="m445.101562 280.433594-46.582031-30.683594c16.957031-29.519531 25.871094-62.835938 25.871094-97.0625 0-40.265625-15.539063-78.265625-43.753906-106.992188-28.523438-29.039062-68.226563-45.695312-108.933594-45.695312h-83.289063c-40.703124 0-80.410156 16.65625-108.929687 45.695312-28.21875 28.726563-43.757813 66.726563-43.757813 106.992188 0 34.226562 8.914063 67.542969 25.871094 97.0625l-46.582031 30.683594c-14.867187 9.792968-18.996094 29.855468-9.199219 44.722656l7.210938 10.945312c1.921875 2.917969 5.109375 4.5 8.359375 4.5 1.886719 0 3.796875-.53125 5.492187-1.648437 4.609375-3.039063 5.886719-9.238281 2.847656-13.851563l-7.210937-10.949218c-3.726563-5.65625-2.15625-13.292969 3.503906-17.019532l10.804688-7.117187 67.9375 103.132813-10.804688 7.121093c-5.660156 3.726563-13.292969 2.15625-17.019531-3.503906l-3.199219-4.855469c-3.039062-4.609375-9.242187-5.886718-13.851562-2.847656-4.613281 3.039062-5.890625 9.238281-2.851563 13.851562l3.199219 4.855469c6.199219 9.410157 16.507813 14.515625 27.011719 14.515625 6.09375 0 12.253906-1.71875 17.710937-5.3125l46.074219-30.351562 6.980469 10.628906c-5.09375 10.515625-7.953125 22.304688-7.953125 34.75 0 44.113281 35.886718 80 80 80 44.113281 0 80-35.886719 80-80 0-12.445312-2.859375-24.234375-7.949219-34.75l6.976563-10.628906 46.074218 30.351562c5.460938 3.59375 11.617188 5.3125 17.710938 5.3125 10.503906 0 20.816406-5.105468 27.015625-14.515625l54.417969-82.613281c9.792968-14.867188 5.664062-34.929688-9.203126-44.722656zm-385.914062-132.117188c1.203125-18.863281 11.257812-36.253906 26.898438-46.519531 27.601562-18.109375 59.640624-27.679687 92.648437-27.679687h28.820313l-126.132813 126.132812-7.035156-7.886719c-10.679688-11.976562-16.21875-28.03125-15.199219-44.046875zm176.652344-74.199218h47.308594c16.644531 0 33.050781 2.449218 48.769531 7.191406l-36.535157 36.535156c-3.90625 3.90625-3.90625 10.238281 0 14.144531 1.953126 1.953125 4.511719 2.925781 7.070313 2.925781s5.117187-.972656 7.070313-2.925781l42.96875-42.96875c7.769531 3.503907 15.304687 7.589844 22.535156 12.277344 16.117187 10.449219 26.140625 28.40625 26.804687 48.027344.527344 15.515625-4.875 30.445312-15.207031 42.035156l-37.707031 42.292969c-6.996094 7.847656-17.039063 12.347656-27.550781 12.347656-14.167969 0-27.25-8.269531-33.335938-21.066406l-11.59375-24.398438c-7.328125-15.410156-23.085938-25.367187-40.148438-25.367187h-12.460937c-17.0625 0-32.820313 9.957031-40.144531 25.367187l-11.597656 24.398438c-6.082032 12.796875-19.167969 21.066406-33.335938 21.066406-10.515625 0-20.554688-4.5-27.550781-12.347656l-16.449219-18.449219zm-142.089844-14.40625c24.789062-25.238282 59.289062-39.710938 94.664062-39.710938h83.289063c35.375 0 69.875 14.472656 94.664063 39.710938 7.351562 7.484374 13.707031 15.695312 19.007812 24.46875-30.550781-19.667969-65.882812-30.0625-102.226562-30.0625h-104.414063c-36.917969 0-72.75 10.707031-103.617187 30.957031-.515626.339843-1.019532.683593-1.523438 1.03125 5.527344-9.496094 12.269531-18.363281 20.15625-26.394531zm27.714844 322.4375-67.9375-103.136719 18.75-12.351563 67.777344 103.242188zm98.59375 19.851562v20h-49.152344c1.210938-7.179688 3.699219-13.921875 7.222656-20zm61.929687 0c3.523438 6.078125 6.011719 12.820312 7.222657 20h-49.152344v-20zm-103.859375 60c-3.523437-6.078125-6.011718-12.820312-7.222656-20h49.152344v20zm41.929688 20v9.152344c-8.429688-1.421875-16.265625-4.597656-23.117188-9.152344zm20 0h23.117187c-6.851562 4.554688-14.6875 7.730469-23.117187 9.152344zm0-20v-20h49.152344c-1.210938 7.179688-3.699219 13.921875-7.222657 20zm0-80v-9.152344c8.429687 1.421875 16.265625 4.597656 23.117187 9.152344zm-20 0h-23.117188c6.851563-4.554688 14.6875-7.730469 23.117188-9.152344zm10-30c-23.875 0-45.324219 10.527344-59.996094 27.164062l-85.621094-130.414062c-7.234375-11.019531-13.152344-22.726562-17.699218-34.90625l29.527343 33.117188c10.789063 12.101562 26.269531 19.039062 42.480469 19.039062 21.84375 0 42.019531-12.75 51.398438-32.480469l11.597656-24.398437c4.027344-8.476563 12.695312-13.953125 22.082031-13.953125h12.460937c9.382813 0 18.054688 5.476562 22.082032 13.953125l11.597656 24.398437c9.378906 19.730469 29.554688 32.480469 51.398438 32.480469 16.210937 0 31.695312-6.9375 42.480468-19.039062l29.527344-33.117188c-4.546875 12.179688-10.464844 23.886719-17.699219 34.90625l-85.621093 130.414062c-14.671876-16.636718-36.121094-27.164062-59.996094-27.164062zm157.78125-85.335938 18.75 12.351563-67.9375 103.132813-18.589844-12.246094zm49.761718 47.488282-54.417968 82.613281c-3.730469 5.660156-11.363282 7.230469-17.023438 3.503906l-10.804687-7.121093 67.9375-103.132813 10.804687 7.117187c5.660156 3.726563 7.230469 11.363282 3.503906 17.019532zm0 0" data-original="#000000" class="" style="fill:#000000"/><path d="m43.378906 354.011719c-2.628906 0-5.210937 1.058593-7.070312 2.929687-1.859375 1.859375-2.929688 4.4375-2.929688 7.070313 0 2.628906 1.070313 5.207031 2.929688 7.066406 1.859375 1.863281 4.441406 2.933594 7.070312 2.933594s5.210938-1.070313 7.070313-2.933594c1.859375-1.859375 2.929687-4.4375 2.929687-7.066406 0-2.632813-1.070312-5.210938-2.929687-7.070313-1.859375-1.871094-4.441407-2.929687-7.070313-2.929687zm0 0" data-original="#000000" class="" style="fill:#000000"/><path d="m274.167969 163.199219c2.628906 0 5.210937-1.070313 7.070312-2.929688s2.929688-4.441406 2.929688-7.070312c0-2.628907-1.070313-5.210938-2.929688-7.070313s-4.441406-2.929687-7.070312-2.929687c-2.628907 0-5.210938 1.070312-7.070313 2.929687s-2.929687 4.441406-2.929687 7.070313c0 2.628906 1.070312 5.210937 2.929687 7.070312s4.441406 2.929688 7.070313 2.929688zm0 0" data-original="#000000" class="" style="fill:#000000"/></g> </svg>
