<?xml version="1.0"?>
<svg xmlns="http://www.w3.org/2000/svg" height="512px" version="1.1" viewBox="1 -35 423.809 423" width="512px" class=""><g><g id="surface1">
<path d="M 70.667969 21.621094 L 91.867188 21.621094 L 91.867188 120.554688 L 70.667969 120.554688 Z M 70.667969 21.621094 " style=" stroke:none;fill-rule:nonzero;fill:rgb(60%,60%,60%);fill-opacity:1;" data-original="#999999" class=""/>
<path d="M 219.066406 21.621094 L 247.332031 21.621094 L 247.332031 120.554688 L 219.066406 120.554688 Z M 219.066406 21.621094 " style=" stroke:none;fill-rule:nonzero;fill:rgb(60%,60%,60%);fill-opacity:1;" data-original="#999999" class=""/>
<path d="M 381.601562 21.621094 L 416.933594 21.621094 L 416.933594 120.554688 L 381.601562 120.554688 Z M 381.601562 21.621094 " style=" stroke:none;fill-rule:nonzero;fill:rgb(60%,60%,60%);fill-opacity:1;" data-original="#999999" class=""/>
<path d="M 275.597656 21.621094 L 353.332031 21.621094 L 353.332031 120.554688 L 275.597656 120.554688 Z M 275.597656 21.621094 " style=" stroke:none;fill-rule:nonzero;fill:rgb(60%,60%,60%);fill-opacity:1;" data-original="#999999" class=""/>
<path d="M 7.066406 21.621094 L 42.398438 21.621094 L 42.398438 120.554688 L 7.066406 120.554688 Z M 7.066406 21.621094 " style=" stroke:none;fill-rule:nonzero;fill:rgb(60%,60%,60%);fill-opacity:1;" data-original="#999999" class=""/>
<path d="M 35.332031 233.621094 L 56.53125 233.621094 L 56.53125 332.554688 L 35.332031 332.554688 Z M 35.332031 233.621094 " style=" stroke:none;fill-rule:nonzero;fill:rgb(60%,60%,60%);fill-opacity:1;" data-original="#999999" class=""/>
<path d="M 233.199219 304.285156 L 233.199219 261.886719 L 282.664062 261.886719 L 282.664062 233.621094 L 219.066406 233.621094 C 211.269531 233.644531 204.957031 239.957031 204.933594 247.753906 L 204.933594 318.417969 C 204.957031 326.214844 211.269531 332.53125 219.066406 332.554688 L 282.664062 332.554688 L 282.664062 304.285156 Z M 233.199219 304.285156 " style="fill:#DEDDE0" data-original="#99EFF2" class="active-path" data-old_color="#99EFF2"/>
<path d="M 233.199219 261.886719 L 282.664062 261.886719 L 282.664062 304.285156 L 233.199219 304.285156 Z M 233.199219 261.886719 " style=" stroke:none;fill-rule:nonzero;fill:rgb(87.058824%,86.666667%,87.843137%);fill-opacity:1;" data-original="#DEDDE0" class=""/>
<path d="M 310.933594 233.621094 L 388.667969 233.621094 L 388.667969 332.554688 L 310.933594 332.554688 Z M 310.933594 233.621094 " style=" stroke:none;fill-rule:nonzero;fill:rgb(60%,60%,60%);fill-opacity:1;" data-original="#999999" class=""/>
<path d="M 204.933594 7.488281 L 91.867188 7.488281 L 91.867188 134.6875 L 204.933594 134.6875 C 212.738281 134.6875 219.066406 128.359375 219.066406 120.554688 L 219.066406 21.621094 C 219.066406 13.8125 212.738281 7.488281 204.933594 7.488281 Z M 190.800781 106.417969 L 120.132812 106.417969 L 120.132812 35.753906 L 190.800781 35.753906 Z M 190.800781 106.417969 " style="fill:#DEDDE0" data-original="#99EFF2" class="active-path" data-old_color="#99EFF2"/>
<path d="M 120.132812 35.753906 L 190.800781 35.753906 L 190.800781 106.417969 L 120.132812 106.417969 Z M 120.132812 35.753906 " style=" stroke:none;fill-rule:nonzero;fill:rgb(100%,31.372549%,13.72549%);fill-opacity:1;" data-original="#FF5023" class=""/>
<path d="M 275.597656 7.488281 L 261.464844 7.488281 C 253.660156 7.488281 247.332031 13.8125 247.332031 21.621094 L 247.332031 120.554688 C 247.332031 128.359375 253.660156 134.6875 261.464844 134.6875 L 275.597656 134.6875 Z M 275.597656 7.488281 " style="fill:#DEDDE0" data-original="#99EFF2" class="active-path" data-old_color="#99EFF2"/>
<path d="M 70.667969 7.488281 L 42.398438 7.488281 L 42.398438 134.6875 L 70.667969 134.6875 Z M 70.667969 7.488281 " style="fill:#DEDDE0" data-original="#99EFF2" class="active-path" data-old_color="#99EFF2"/>
<path d="M 381.601562 7.488281 L 353.332031 7.488281 L 353.332031 134.6875 L 381.601562 134.6875 Z M 381.601562 7.488281 " style="fill:#DEDDE0" data-original="#99EFF2" class="active-path" data-old_color="#99EFF2"/>
<path d="M 56.535156 346.6875 L 169.601562 346.6875 C 177.40625 346.6875 183.734375 340.359375 183.734375 332.554688 L 183.734375 233.621094 C 183.734375 225.8125 177.40625 219.488281 169.601562 219.488281 L 56.535156 219.488281 Z M 84.800781 247.753906 L 155.464844 247.753906 L 155.464844 318.417969 L 84.800781 318.417969 Z M 84.800781 247.753906 " style="fill:#DEDDE0" data-original="#99EFF2" class="active-path" data-old_color="#99EFF2"/>
<path d="M 84.800781 247.753906 L 155.464844 247.753906 L 155.464844 318.417969 L 84.800781 318.417969 Z M 84.800781 247.753906 " style=" stroke:none;fill-rule:nonzero;fill:rgb(100%,31.372549%,13.72549%);fill-opacity:1;" data-original="#FF5023" class=""/>
<path d="M 310.933594 219.488281 L 296.800781 219.488281 C 288.996094 219.488281 282.667969 225.8125 282.667969 233.621094 L 282.667969 332.554688 C 282.667969 340.359375 288.996094 346.6875 296.800781 346.6875 L 310.933594 346.6875 Z M 310.933594 219.488281 " style="fill:#DEDDE0" data-original="#99EFF2" class="active-path" data-old_color="#99EFF2"/>
<path d="M 7.066406 219.488281 L 7.066406 346.6875 L 35.332031 346.6875 L 35.332031 219.488281 Z M 7.066406 219.488281 " style="fill:#DEDDE0" data-original="#99EFF2" class="active-path" data-old_color="#99EFF2"/>
<path d="M 388.667969 233.621094 L 388.667969 346.6875 L 416.933594 346.6875 L 416.933594 219.488281 L 388.667969 219.488281 Z M 388.667969 233.621094 " style="fill:#DEDDE0" data-original="#99EFF2" class="active-path" data-old_color="#99EFF2"/>
<path d="M 190.800781 28.6875 L 120.132812 28.6875 C 116.230469 28.6875 113.066406 31.847656 113.066406 35.753906 L 113.066406 106.417969 C 113.066406 110.320312 116.230469 113.484375 120.132812 113.484375 L 190.800781 113.484375 C 194.703125 113.484375 197.867188 110.320312 197.867188 106.417969 L 197.867188 35.753906 C 197.867188 31.851562 194.703125 28.6875 190.800781 28.6875 Z M 183.734375 99.351562 L 127.199219 99.351562 L 127.199219 42.820312 L 183.734375 42.820312 Z M 183.734375 99.351562 " style="fill:#000000" data-original="#000000" class="" data-old_color=" stroke:nonefill-rule:nonzero;rgb(0%,0%,0%);fill-opacity:1;"/>
<path d="M 416.933594 14.550781 L 388.667969 14.550781 L 388.667969 7.488281 C 388.667969 3.582031 385.503906 0.421875 381.597656 0.421875 L 353.332031 0.421875 C 349.429688 0.421875 346.265625 3.582031 346.265625 7.488281 L 346.265625 14.550781 L 282.667969 14.550781 L 282.667969 7.488281 C 282.667969 3.582031 279.503906 0.421875 275.601562 0.421875 L 261.46875 0.421875 C 252.515625 0.457031 244.550781 6.113281 241.566406 14.554688 L 224.832031 14.554688 C 221.847656 6.113281 213.886719 0.457031 204.933594 0.421875 L 91.867188 0.421875 C 87.964844 0.421875 84.800781 3.582031 84.800781 7.488281 L 84.800781 14.550781 L 77.734375 14.550781 L 77.734375 7.488281 C 77.734375 3.582031 74.570312 0.421875 70.667969 0.421875 L 42.398438 0.421875 C 38.496094 0.421875 35.332031 3.582031 35.332031 7.488281 L 35.332031 14.550781 L 7.066406 14.550781 C 3.164062 14.550781 0 17.71875 0 21.621094 L 0 120.554688 C 0 124.457031 3.164062 127.621094 7.066406 127.621094 L 35.332031 127.621094 L 35.332031 134.683594 C 35.332031 138.589844 38.496094 141.75 42.398438 141.75 L 70.664062 141.75 C 74.570312 141.75 77.730469 138.589844 77.730469 134.683594 L 77.730469 127.621094 L 84.796875 127.621094 L 84.796875 134.683594 C 84.796875 138.589844 87.960938 141.75 91.863281 141.75 L 204.929688 141.75 C 213.882812 141.714844 221.847656 136.058594 224.832031 127.617188 L 241.5625 127.617188 C 244.546875 136.058594 252.511719 141.714844 261.464844 141.75 L 275.597656 141.75 C 279.5 141.75 282.664062 138.589844 282.664062 134.683594 L 282.664062 127.621094 L 346.261719 127.621094 L 346.261719 134.683594 C 346.261719 138.589844 349.425781 141.75 353.328125 141.75 L 381.597656 141.75 C 385.5 141.75 388.664062 138.589844 388.664062 134.683594 L 388.664062 127.621094 L 416.929688 127.621094 C 420.832031 127.621094 423.996094 124.457031 423.996094 120.554688 L 423.996094 21.621094 C 424 17.71875 420.835938 14.550781 416.933594 14.550781 Z M 14.132812 113.484375 L 14.132812 28.6875 L 35.332031 28.6875 L 35.332031 113.484375 Z M 63.597656 127.621094 L 49.464844 127.621094 L 49.464844 14.550781 L 63.597656 14.550781 Z M 77.734375 113.484375 L 77.734375 28.6875 L 84.800781 28.6875 L 84.800781 113.484375 Z M 240.265625 28.6875 L 240.265625 113.484375 L 226.132812 113.484375 L 226.132812 28.6875 Z M 212 120.554688 C 212 124.457031 208.835938 127.621094 204.933594 127.621094 L 98.933594 127.621094 L 98.933594 14.550781 L 204.933594 14.550781 C 208.835938 14.550781 212 17.714844 212 21.617188 Z M 268.535156 127.621094 L 261.46875 127.621094 C 257.5625 127.621094 254.402344 124.457031 254.402344 120.554688 L 254.402344 21.621094 C 254.402344 17.71875 257.5625 14.554688 261.46875 14.554688 L 268.535156 14.554688 Z M 282.667969 113.484375 L 282.667969 28.6875 L 346.265625 28.6875 L 346.265625 113.484375 Z M 374.53125 127.621094 L 360.398438 127.621094 L 360.398438 14.550781 L 374.53125 14.550781 Z M 409.867188 113.484375 L 388.667969 113.484375 L 388.667969 28.6875 L 409.867188 28.6875 Z M 409.867188 113.484375 " style="fill:#000000" data-original="#000000" class="" data-old_color=" stroke:nonefill-rule:nonzero;rgb(0%,0%,0%);fill-opacity:1;"/>
<path d="M 169.601562 212.417969 L 56.535156 212.417969 C 52.628906 212.417969 49.46875 215.582031 49.46875 219.484375 L 49.46875 226.550781 L 42.402344 226.550781 L 42.402344 219.484375 C 42.402344 215.582031 39.238281 212.417969 35.335938 212.417969 L 7.066406 212.417969 C 3.164062 212.417969 0 215.582031 0 219.484375 L 0 346.683594 C 0 350.589844 3.164062 353.753906 7.066406 353.753906 L 35.332031 353.753906 C 39.234375 353.753906 42.398438 350.589844 42.398438 346.683594 L 42.398438 339.621094 L 49.464844 339.621094 L 49.464844 346.683594 C 49.464844 350.589844 52.628906 353.753906 56.53125 353.753906 L 169.597656 353.753906 C 181.304688 353.753906 190.796875 344.261719 190.796875 332.554688 L 190.796875 233.621094 C 190.800781 221.910156 181.308594 212.417969 169.601562 212.417969 Z M 28.265625 339.621094 L 14.132812 339.621094 L 14.132812 226.550781 L 28.265625 226.550781 Z M 42.398438 325.484375 L 42.398438 240.6875 L 49.464844 240.6875 L 49.464844 325.484375 Z M 176.667969 332.554688 C 176.667969 336.457031 173.503906 339.621094 169.601562 339.621094 L 63.597656 339.621094 L 63.597656 226.550781 L 169.597656 226.550781 C 173.5 226.550781 176.664062 229.714844 176.664062 233.617188 L 176.664062 332.554688 Z M 176.667969 332.554688 " style="fill:#000000" data-original="#000000" class="" data-old_color=" stroke:nonefill-rule:nonzero;rgb(0%,0%,0%);fill-opacity:1;"/>
<path d="M 155.464844 240.6875 L 84.800781 240.6875 C 80.898438 240.6875 77.734375 243.847656 77.734375 247.753906 L 77.734375 318.417969 C 77.734375 322.320312 80.898438 325.484375 84.800781 325.484375 L 155.464844 325.484375 C 159.371094 325.484375 162.53125 322.324219 162.53125 318.417969 L 162.53125 247.753906 C 162.53125 243.851562 159.371094 240.6875 155.464844 240.6875 Z M 148.398438 311.351562 L 91.867188 311.351562 L 91.867188 254.820312 L 148.398438 254.820312 Z M 148.398438 311.351562 " style="fill:#000000" data-original="#000000" class="" data-old_color=" stroke:nonefill-rule:nonzero;rgb(0%,0%,0%);fill-opacity:1;"/>
<path d="M 416.933594 212.417969 L 388.667969 212.417969 C 384.761719 212.417969 381.597656 215.582031 381.597656 219.484375 L 381.597656 226.550781 L 318 226.550781 L 318 219.484375 C 318 215.582031 314.835938 212.417969 310.933594 212.417969 L 296.800781 212.417969 C 287.847656 212.457031 279.882812 218.113281 276.898438 226.550781 L 219.066406 226.550781 C 207.355469 226.550781 197.867188 236.042969 197.867188 247.753906 L 197.867188 318.417969 C 197.867188 330.128906 207.355469 339.617188 219.066406 339.617188 L 276.898438 339.617188 C 279.882812 348.058594 287.847656 353.714844 296.800781 353.75 L 310.933594 353.75 C 314.835938 353.75 318 350.589844 318 346.683594 L 318 339.617188 L 381.597656 339.617188 L 381.597656 346.683594 C 381.597656 350.585938 384.761719 353.75 388.667969 353.75 L 416.933594 353.75 C 420.835938 353.75 424 350.589844 424 346.683594 L 424 219.488281 C 424 215.582031 420.835938 212.417969 416.933594 212.417969 Z M 212 318.417969 L 212 247.753906 C 212 243.851562 215.164062 240.6875 219.066406 240.6875 L 275.597656 240.6875 L 275.597656 254.820312 L 233.199219 254.820312 C 229.296875 254.820312 226.132812 257.984375 226.132812 261.886719 L 226.132812 304.285156 C 226.132812 308.1875 229.296875 311.355469 233.199219 311.355469 L 275.597656 311.355469 L 275.597656 325.488281 L 219.066406 325.488281 C 215.164062 325.484375 212 322.324219 212 318.417969 Z M 275.597656 268.953125 L 275.597656 297.21875 L 240.265625 297.21875 L 240.265625 268.953125 Z M 303.867188 339.621094 L 296.800781 339.621094 C 292.894531 339.621094 289.734375 336.457031 289.734375 332.550781 L 289.734375 233.617188 C 289.734375 229.714844 292.894531 226.550781 296.800781 226.550781 L 303.867188 226.550781 Z M 318 325.484375 L 318 240.6875 L 381.597656 240.6875 L 381.597656 325.484375 Z M 409.867188 339.621094 L 395.734375 339.621094 L 395.734375 226.550781 L 409.867188 226.550781 Z M 409.867188 339.621094 " style="fill:#000000" data-original="#000000" class="" data-old_color=" stroke:nonefill-rule:nonzero;rgb(0%,0%,0%);fill-opacity:1;"/>
</g></g> </svg>
