<svg height="478pt" viewBox="-78 0 478 478.7324" width="478pt" xmlns="http://www.w3.org/2000/svg"><path d="m262.730469 178.457031-13.777344-.625-20.097656-6.472656c-.589844 2.28125-4.167969-3.613281-7.757813-1.289063-4.226562 4.398438-7.019531 9.980469-8 16 1.9375 9.042969 6.371094 17.355469 12.800782 24 2.847656 2.617188 5.375-2.8125 6.535156-.292968l30.261718-1.25c8.074219-.304688 14.460938-6.929688 14.476563-15.007813s-6.347656-14.726562-14.417969-15.0625zm0 0" fill="#787d82"/><path d="m181.992188 270.464844 132.234374 97.09375-75.769531 103.167968-121.328125-100.65625zm0 0" fill="#f6bb92"/><path d="m234.578125 394.648438c-1.703125 0-3.359375-.546876-4.730469-1.550782l-31.558594-23.203125-22.136718-17.597656c-2.253906-1.773437-3.386719-4.617187-2.96875-7.453125.414062-2.839844 2.320312-5.234375 4.988281-6.285156 2.671875-1.046875 5.695313-.585938 7.933594 1.210937l21.886719 17.40625 31.320312 22.984375c2.789062 2.046875 3.945312 5.652344 2.867188 8.941406-1.078126 3.285157-4.144532 5.507813-7.601563 5.507813zm0 0" fill="#eeb58e"/><path d="m165.265625 198.625 62.871094 46.167969c8.601562 6.3125 12 17.542969 8.34375 27.566406l-56.65625 145.066406c-3.617188 9.261719-11.335938 16.3125-20.882813 19.085938-9.550781 2.773437-19.84375.949219-27.859375-4.933594l-24-17.640625c-11.664062-8.566406-16.125-23.890625-10.890625-37.378906zm0 0" fill="#b94137"/><path d="m100.945312 278.265625c-19.054687-.035156-36.46875-10.769531-45.0625-27.777344-8.589843-17.003906-6.894531-37.394531 4.382813-52.753906l12.6875-17.261719c1.644531-2.421875 4.484375-3.75 7.394531-3.460937 2.914063.285156 5.4375 2.136719 6.582032 4.832031 1.144531 2.695312.726562 5.796875-1.089844 8.09375l-12.710938 17.269531c-11.164062 15.398438-7.800781 36.921875 7.53125 48.179688 15.328125 11.257812 36.871094 8.019531 48.222656-7.242188l12.6875-17.28125c1.660157-2.386719 4.484376-3.6875 7.378907-3.394531 2.894531.296875 5.398437 2.136719 6.542969 4.8125 1.144531 2.671875.75 5.757812-1.035157 8.054688l-12.6875 17.28125c-7.910156 10.835937-19.828125 18.058593-33.097656 20.054687-2.554687.390625-5.140625.589844-7.726563.59375zm0 0" fill="#a8a8a8"/><path d="m59.976562 71.679688-51.582031-37.878907 18.941407-25.792969 51.585937 37.878907 14.207031 12.183593-16 24zm0 0" fill="#9c9c9c"/><path d="m104.714844 64.832031 128.710937 94.519531c-9.753906 18.808594-8.332031 41.464844 3.703125 58.90625 3.332032 4.929688 3.203125 11.425782-.320312 16.222657l-31.632813 43.070312-144.222656-105.878906c-5.503906-4.039063-7.835937-11.128906-5.808594-17.648437l11.6875-37.597657zm0 0" fill="#dc4d41"/><path d="m89.605469 152.988281 28.410156-38.6875 64.484375 47.351563-28.410156 38.6875zm0 0" fill="#b94137"/><path d="m278.730469 341.488281-77.378907-56.800781c-10.683593-7.847656-12.980468-22.867188-5.132812-33.550781 7.84375-10.679688 22.859375-12.980469 33.542969-5.136719l37.765625 27.71875c8.625 6.335938 13.511718 16.5625 13.027344 27.25zm0 0" fill="#f6bb92"/><path d="m116.203125 251.921875-9.167969-6.730469c-9.773437-7.175781-13.402344-20.078125-8.800781-31.296875l4.6875-11.4375 32.238281 23.671875c3.429688 2.511719 5.71875 6.285156 6.363282 10.488282.640624 4.203124-.414063 8.488281-2.9375 11.910156-2.519532 3.421875-6.292969 5.699218-10.488282 6.335937-4.199218.636719-8.480468-.421875-11.894531-2.941406zm0 0" fill="#f6bb92"/><path d="m41.042969 97.472656-25.792969-18.9375 18.933594-25.789062 25.792968 18.933594 12.496094 9.472656-19.34375 24.917968zm0 0" fill="#787d82"/><path d="m155.339844 253.175781 19.34375 14.203125c7.125 5.230469 8.65625 15.246094 3.425781 22.367188l-4.734375 6.449218c-5.230469 7.121094-15.242188 8.65625-22.367188 3.425782l-19.34375-14.207032c-7.121093-5.226562-8.65625-15.242187-3.425781-22.363281l4.734375-6.449219c5.230469-7.121093 15.246094-8.65625 22.367188-3.425781zm0 0" fill="#f6bb92"/><g fill="#eeb58e"><path d="m126.234375 266.871094c-2.554687 6.703125-.339844 14.285156 5.421875 18.554687l19.34375 14.207031c6.019531 4.421876 14.296875 4.089844 19.945312-.800781zm0 0"/><path d="m126.234375 266.871094c-2.554687 6.703125-.339844 14.285156 5.421875 18.554687l19.34375 14.207031c6.019531 4.421876 14.296875 4.089844 19.945312-.800781zm0 0"/><path d="m229.128906 290.070312-37.421875-26.765624c-.3125 3.863281.308594 7.746093 1.804688 11.320312.152343.359375.328125.703125.496093 1.054688.644532 1.332031 1.410157 2.601562 2.289063 3.792968.296875.398438.558594.800782.878906 1.199219 1.21875 1.496094 2.617188 2.839844 4.160157 4l23.410156 17.191406zm0 0"/><path d="m135.386719 251.671875-39.058594-27.917969c-.066406 8.449219 3.917969 16.417969 10.714844 21.4375l9.167969 6.730469c5.730468 4.203125 13.554687 4.101563 19.175781-.25zm0 0"/></g><path d="m140.6875 290.078125 32.242188 23.675781c7.121093 5.230469 8.65625 15.246094 3.425781 22.367188l-4.734375 6.449218c-5.230469 7.121094-15.246094 8.65625-22.367188 3.425782l-32.242187-23.675782c-7.121094-5.230468-8.65625-15.246093-3.425781-22.367187l4.738281-6.449219c5.226562-7.121094 15.242187-8.65625 22.363281-3.425781zm0 0" fill="#f6bb92"/><path d="m111.128906 305.070312c-1.820312 6.414063.519532 13.28125 5.878906 17.242188l32.242188 23.679688c5.882812 4.292968 13.921875 4.066406 19.558594-.542969zm0 0" fill="#eeb58e"/><path d="m123.457031 327.050781 32.242188 23.675781c7.121093 5.230469 8.65625 15.242188 3.425781 22.367188l-4.734375 6.445312c-5.230469 7.125-15.246094 8.660157-22.367187 3.429688l-32.242188-23.675781c-7.121094-5.230469-8.65625-15.246094-3.425781-22.367188l4.734375-6.449219c5.230468-7.121093 15.246094-8.65625 22.367187-3.425781zm0 0" fill="#f6bb92"/><path d="m93.96875 341.863281c-1.9375 6.453125.390625 13.429688 5.816406 17.425781l32.238282 23.679688c5.945312 4.339844 14.082031 4.066406 19.722656-.664062zm0 0" fill="#eeb58e"/><path d="m41.050781 97.484375 37.890625-51.582031 25.789063 18.945312-37.886719 51.582032zm0 0" fill="#a8a8a8"/><path d="m238.160156 152.902344-128.710937-94.519532-25.800781-18.941406-51.582032-37.882812c-1.710937-1.257813-3.855468-1.789063-5.957031-1.464844-2.101563.320312-3.988281 1.464844-5.246094 3.179688l-18.933593 25.796874c-1.261719 1.710938-1.792969 3.855469-1.472657 5.957032.320313 2.101562 1.460938 3.988281 3.175781 5.246094l19.34375 14.207031-14.199218 19.34375c-1.261719 1.710937-1.789063 3.855469-1.46875 5.957031.320312 2.097656 1.464844 3.988281 3.179687 5.242188l25.839844 18.898437 21.199219 15.566406-10 32.183594c-3.007813 9.753906.480468 20.34375 8.699218 26.398437l12 8.800782-7.953124 10.824218c-7.949219 10.808594-11.269532 24.335938-9.230469 37.597657 2.039062 13.261719 9.273437 25.164062 20.101562 33.082031 8.632813 6.382812 19.089844 9.828125 29.824219 9.824219 5.59375.011719 11.148438-.917969 16.433594-2.75.308594 2.304687.949218 4.554687 1.902344 6.679687-2.902344 1.648438-5.425782 3.886719-7.40625 6.574219l-4.746094 6.449219c-4.847656 6.636718-5.953125 15.300781-2.925782 22.945312-3.808593 1.644532-7.121093 4.257813-9.601562 7.582032l-4.734375 6.449218c-7.035156 9.675782-5.871094 23.050782 2.726563 31.367188l-3.921876 10.105468c-6.523437 16.859376-.953124 36.003907 13.601563 46.726563l24 17.601563c6.832031 5.042968 15.101563 7.769531 23.59375 7.773437 3.800781 0 7.585937-.539063 11.238281-1.597656 7.199219-2.042969 13.675782-6.074219 18.6875-11.632813l53.527344 44.414063c1.699219 1.410156 3.902344 2.054687 6.089844 1.785156s4.167968-1.429687 5.472656-3.207031l75.757812-103.199219c1.261719-1.710937 1.792969-3.855469 1.472657-5.953125-.320313-2.101562-1.460938-3.992188-3.175781-5.25l-32.054688-23.535156 1.648438-36.246094c.617187-13.363281-5.5-26.148438-16.289063-34.058594l-32.222656-23.65625 3.199219-4.382812c4.660156-6.382813 5.558593-14.765625 2.359374-21.992188l17.40625-.71875c12.347657-.492187 22.109376-10.628906 22.132813-22.984375.023437-12.359375-9.699219-22.535156-22.042969-23.070312l-12.703125-.578125-11.3125-3.648438c.457031-1.046875.847657-2.121094 1.390625-3.144531 1.835938-3.488281.851563-7.792969-2.3125-10.144531zm-209.117187-133.710938 38.695312 28.410156-9.472656 12.871094-38.6875-28.382812zm6.855469 44.730469 12.894531 9.46875-9.472657 12.898437-12.894531-9.464843zm44.734374-6.851563 12.894532 9.472657-28.398438 38.730469-12.894531-9.472657zm-17.847656 99.3125 11.289063-36.3125 32.351562-44.054687 117.007813 85.921875c-4.355469 11.160156-5.503906 23.316406-3.3125 35.09375.957031 5.300781 2.558594 10.464844 4.761718 15.378906.109376.230469.183594.46875.292969.703125l.066407.101563c1.496093 3.3125 3.253906 6.496094 5.261718 9.519531 1.441406 2.132813 1.386719 4.9375-.132812 7.011719l-4.089844 5.597656c-13.277344-4.9375-28.21875-.414062-36.527344 11.054688-1.570312 2.207031-2.855468 4.597656-3.824218 7.121093l-33.152344-24.351562-12.878906-9.496094-32.25-23.671875-23.0625-16.9375-18.898438-13.855469c-2.75-2.019531-3.917969-5.5625-2.902344-8.824219zm108.871094 128.632813-4.726562 6.449219c-1.457032 1.984375-3.746094 3.1875-6.207032 3.261718-.050781 0-.097656 0-.144531 0l-15.160156-11.054687c-2.503907-1.863281-5.347657-3.222656-8.367188-4-.203125-.253906-.421875-.496094-.65625-.71875-1.71875-1.257813-2.863281-3.140625-3.1875-5.242187-.320312-2.101563.207031-4.246094 1.464844-5.957032l4.753906-6.457031c1.253907-1.714844 3.144531-2.859375 5.242188-3.179687 2.101562-.324219 4.246093.207031 5.957031 1.46875l19.304688 14.238281c1.714843 1.257812 2.855468 3.144531 3.175781 5.246093.320312 2.101563-.210938 4.242188-1.472657 5.953126zm-66.03125-68.09375.800781-1.953125 13.640625 10.023438 10.398438 7.609374c3.4375 2.660157 4.121094 7.578126 1.539062 11.074219-2.578125 3.496094-7.476562 4.292969-11.035156 1.796875l-9.175781-6.738281c-6.824219-4.988281-9.367188-13.988281-6.167969-21.8125zm.65625 44.933594c-9.0625 1.40625-18.308594-.867188-25.6875-6.3125-15.386719-11.296875-18.699219-32.925781-7.402344-48.3125l7.953125-10.820313 12 8.796875-2.3125 5.65625c-6 14.625-1.265625 31.453125 11.480469 40.800781l9.167969 6.734376c.726562.507812 1.480469.972656 2.257812 1.394531-2.402343.964843-4.902343 1.65625-7.457031 2.0625zm13.742188 42.832031 4.738281-6.449219c1.25-1.71875 3.136719-2.871093 5.238281-3.199219.410156-.0625.820312-.09375 1.234375-.09375 1.703125.011719 3.359375.574219 4.71875 1.597657l32.238281 23.671875c1.71875 1.257812 2.863282 3.144531 3.1875 5.246094.320313 2.101562-.207031 4.242187-1.464844 5.957031l-4.785156 6.414062c-1.242187 1.726563-3.125 2.878907-5.222656 3.199219-2.101562.324219-4.242188-.199219-5.953125-1.453125l-32.238281-23.683594c-1.714844-1.257812-2.855469-3.148437-3.171875-5.25-.316407-2.105469.214843-4.246093 1.480469-5.957031zm-17.222657 36.96875 4.738281-6.398438c1.253907-1.714843 3.140626-2.859374 5.242188-3.183593 2.101562-.320313 4.246094.207031 5.957031 1.46875l32.238281 23.671875c1.714844 1.257812 2.859376 3.144531 3.179688 5.246094.324219 2.101562-.207031 4.242187-1.46875 5.957031l-4.734375 6.445312c-1.257813 1.714844-3.144531 2.859375-5.246094 3.179688-2.101562.324219-4.242187-.207031-5.953125-1.464844l-32.234375-23.683594c-1.726562-1.253906-2.878906-3.148437-3.203125-5.257812-.324218-2.113281.210938-4.265625 1.484375-5.980469zm53.90625 87.199219c-7.164062 2.117187-14.902343.746093-20.898437-3.703125l-24-17.601563c-8.730469-6.417969-12.078125-17.890625-8.167969-28l2.25-5.765625 21.414063 15.726563c10.683593 7.839843 25.699218 5.539062 33.542968-5.144531l4.738282-6.398438c4.921874-6.609375 6.046874-15.300781 2.96875-22.945312 3.777343-1.652344 7.058593-4.269532 9.519531-7.582032l4.75-6.457031c7.839843-10.6875 5.535156-25.703125-5.152344-33.542969l-2.398437-1.769531c1.722656-1.324219 3.257812-2.875 4.566406-4.609375l4.738281-6.398438c2.453125-3.382812 3.972656-7.347656 4.40625-11.503906 2.054687 3.136719 4.640625 5.890625 7.648437 8.128906l18.617188 13.679688-42.878906 109.550781c-2.691406 6.960938-8.492188 12.257813-15.664063 14.3125zm80.328125 30.320312-49.035156-40.671875 17.035156-43.601562 24.796875 18.21875c3.5625 2.492187 8.464844 1.6875 11.039063-1.820313 2.574218-3.507812 1.875-8.425781-1.574219-11.078125l-28.253906-20.75 17.519531-44.855468 15.046875 11.054687 30.351563 22.289063 29.082031 21.3125zm35.535156-158.574219-1.167968 25.597657-65.328125-48c-5.207031-3.832031-7.59375-10.421875-6.046875-16.703125 1.542968-6.277344 6.710937-11.007813 13.101562-11.992188.8125-.121094 1.632813-.183594 2.457032-.183594 3.394531 0 6.699218 1.085938 9.429687 3.105469l37.785156 27.742188c6.476563 4.742187 10.144531 12.414062 9.769531 20.433593zm-23.953124-114.777343 13.777343.625c3.796875.128906 6.808594 3.242187 6.808594 7.042969 0 3.800781-3.011719 6.914062-6.808594 7.042968l-24.617187 1.015625c-2.160156-6.34375-3.019532-13.058593-2.519532-19.742187l11.296876 3.632812c.664062.21875 1.359374.347656 2.0625.382813zm0 0"/><path d="m149.34375 206.785156c1.710938 1.261719 3.855469 1.789063 5.957031 1.46875 2.101563-.324218 3.988281-1.46875 5.246094-3.183594l28.414063-38.6875c1.261718-1.710937 1.789062-3.851562 1.46875-5.953124-.320313-2.101563-1.464844-3.988282-3.179688-5.246094l-64.519531-47.335938c-1.714844-1.261718-3.855469-1.785156-5.957031-1.464844-2.101563.324219-3.988282 1.46875-5.246094 3.183594l-28.414063 38.683594c-1.261719 1.710938-1.789062 3.851562-1.46875 5.953125.320313 2.101563 1.464844 3.988281 3.179688 5.246094zm-29.597656-81.304687 51.582031 37.878906-18.933594 25.792969-51.609375-37.878906zm0 0"/></svg>